<?xml version="1.0" standalone="no"?>
<!DOCTYPE svg PUBLIC "-//W3C//DTD SVG 20010904//EN"
 "http://www.w3.org/TR/2001/REC-SVG-20010904/DTD/svg10.dtd">
<svg version="1.0" xmlns="http://www.w3.org/2000/svg"
 width="80.000000pt" height="80.000000pt" viewBox="0 0 80.000000 80.000000"
 preserveAspectRatio="xMidYMid meet">
<metadata>
Created by potrace 1.11, written by Peter Selinger 2001-2013
</metadata>
<g transform="translate(0.000000,80.000000) scale(0.100000,-0.100000)"
fill="#000000" stroke="none">
<path d="M18 783 c-14 -16 -16 -67 -16 -378 0 -294 3 -364 14 -382 l14 -23
363 0 c199 0 367 4 373 8 27 17 30 63 29 406 -1 338 -2 359 -20 372 -15 11
-90 14 -380 14 -332 0 -363 -1 -377 -17z m409 -96 c13 5 13 3 2 -15 -17 -28
-37 -18 -31 16 4 18 7 21 10 10 2 -10 9 -15 19 -11z m-47 -9 c0 -13 -23 -5
-28 10 -2 7 2 10 12 6 9 -3 16 -11 16 -16z m32 -47 l33 -29 3 -191 c3 -150 6
-191 17 -191 19 0 21 13 23 145 2 97 6 125 20 144 26 35 49 42 31 10 -9 -17
-13 -70 -14 -173 l0 -150 -35 0 -35 -1 -3 -53 c-3 -43 -6 -53 -20 -50 -15 3
-17 27 -17 244 -1 211 -3 245 -18 268 -11 16 -27 26 -42 26 l-24 0 24 -25 25
-24 0 -246 c0 -215 -2 -245 -16 -245 -9 0 -14 8 -13 18 1 9 1 34 0 55 -1 35
-3 37 -35 37 l-35 0 -3 153 c-2 83 -8 160 -12 171 -8 16 -7 17 12 7 29 -16 35
-41 37 -172 2 -117 6 -139 28 -139 16 0 13 311 -3 351 -12 28 -35 43 -50 34
-5 -3 -7 2 -6 11 3 20 42 43 73 44 13 0 37 -13 55 -29z m-224 -92 c43 -15 54
-51 54 -171 -1 -185 6 -164 -58 -166 -31 -1 -65 3 -75 9 -26 14 -49 62 -45 96
7 62 38 94 99 102 41 6 42 7 40 41 -2 37 -31 70 -62 70 -9 0 -29 -7 -45 -15
-37 -20 -38 -19 -24 10 15 34 60 44 116 24z m501 -4 c16 -8 34 -28 40 -47 29
-81 -34 -164 -113 -149 -16 3 -21 -16 -18 -64 3 -37 9 -49 28 -57 33 -16 22
-24 -25 -20 l-41 4 0 139 c0 151 8 183 49 198 37 13 48 13 80 -4z"/>
<path d="M163 382 c-30 -5 -63 -48 -63 -83 0 -31 30 -69 54 -69 17 0 46 26 47
43 9 99 3 116 -38 109z"/>
<path d="M616 501 c-21 -23 -31 -130 -13 -132 61 -8 86 11 94 67 8 63 -45 105
-81 65z"/>
</g>
</svg>
