<?xml version="1.0" encoding="utf-8" ?>
<!-- Generator: Adobe Illustrator 16.0.0, SVG Export Plug-In . SVG Version: 6.00 Build 0)  -->
<!DOCTYPE SVG PUBLIC "-//W3C//DTD SVG 1.1//EN" "http://www.w3.org/Graphics/SVG/1.1/DTD/svg11.dtd">
<svg version="1.1" id="Layer_1" xmlns="http://www.w3.org/2000/svg" xmlns:xlink="http://www.w3.org/1999/xlink" x="0px" y="0px"
	 width="600px" height="600px" viewBox="0 0 600 600" enable-background="new 0 0 600 600" xml:space="preserve">
<filter width="140%" height="140%" y="-20%" x="-20%" id="AI_BevelShadow_1">
<feGaussianBlur result="blur" stdDeviation="4" in="SourceAlpha"></feGaussianBlur>
<feOffset result="offsetBlur" dx="4" dy="4" in="blur"></feOffset>
<feComponentTransfer in="offsetBlur" result="correctedBlur">
<feFuncA type="linear" slope="0.4" />
   </feComponentTransfer>
<feMerge>
<feMergeNode in="correctedBlur"></feMergeNode>
<feMergeNode in="SourceGraphic"></feMergeNode>
	</feMerge>
</filter>
<g filter="url(#AI_BevelShadow_1)">
<path fill-rule="evenodd" clip-rule="evenodd" fill="#FFFFFF" d="M314.1,594.46c1.9-5.08,3.71-10.2,5.75-15.23
		c0.72-1.77,0.52-3.12-0.38-4.7c-4.53-7.94-8.97-15.93-13.44-23.9c-0.3-0.53-0.52-1.1-0.84-1.79c1.89-0.23,3.58-0.43,5.2-0.63
		c3.88,7.3,7.69,14.46,11.5,21.63c0.33-0.02,0.66-0.03,0.99-0.04c2.25-7.83,4.5-15.65,6.77-23.53c0.97-0.1,1.93-0.19,3.36-0.33
		c-5.07,15.95-10.08,31.68-15.01,47.2c-0.95,0.48-1.79,0.91-2.64,1.33C314.94,594.46,314.52,594.46,314.1,594.46z" />
<path fill-rule="evenodd" clip-rule="evenodd" fill="#FFFFFF" d="M260.11,6.06c0.37,2.89,0.73,5.78,1.12,8.84
		c2.52-0.29,4.77-0.55,7.15-0.82c0.16,0.7,0.3,1.27,0.49,2.1c-2.44,0.4-4.72,0.77-7.25,1.18c0.45,3.25,0.89,6.34,1.32,9.43
		c0.55,4.01,1.05,8.02,1.65,12.02c0.16,1.09,0.52,2.18,0.93,3.21c1.21,3.13,3.24,4.11,6.45,3.21c0.53-0.15,1.06-0.28,2.13-0.57
		c-0.42,0.81-0.54,1.45-0.9,1.64c-2.57,1.39-5.33,2.14-8.24,1.64c-2.1-0.36-3.82-1.56-4.33-3.75c-0.8-3.45-1.5-6.94-2.06-10.44
		c-0.81-5.09-1.45-10.21-2.2-15.57c-1.32,0.12-2.52,0.22-3.99,0.35c-0.19-0.64-0.4-1.32-0.63-2.09c1.46-0.27,2.74-0.51,4.21-0.78
		c-0.28-2.33-0.56-4.58-0.8-6.62c1.49-1.08,2.81-2.02,4.13-2.97C259.56,6.06,259.83,6.06,260.11,6.06z" />
<path fill-rule="evenodd" clip-rule="evenodd" fill="#FFFFFF" d="M584.47,341.03c-0.32,1-0.64,2-1.03,3.23
		c-9.5-1.33-19.22-2.69-28.97-4.06c0.2-1.61,0.37-2.97,0.57-4.59c1.69,0.14,3.36,0.27,5.57,0.46c-2.75-3.31-6.09-5.93-4.3-10.66
		c1.48,0.42,2.86,0.81,4.26,1.21c-0.03,0.33,0.01,0.55-0.06,0.73c-1.77,4.48-0.25,7.92,4.4,9.22c2.66,0.75,5.45,1.05,8.2,1.42
		c3.77,0.52,7.57,0.91,11.35,1.36C584.47,339.91,584.47,340.47,584.47,341.03z" />
<path fill-rule="evenodd" clip-rule="evenodd" fill="#FFFFFF" d="M262.18,158.12c3.89,1.81,7.63,3.2,11.03,5.18
		c9.69,5.67,14.71,14.81,17.66,25.25c2.81,9.93,4.21,20.13,4.32,30.43c0.28,25.98,0.43,51.95,0.46,77.93
		c0.04,53.44-0.03,106.89-0.06,160.33c0,0.63,0,1.25,0,2.07c-6.6,0-13.1,0-19.88,0c0-20.19,0-40.38,0-60.77
		c-13.62,0-26.98,0-40.62,0c0-1.22,0-2.24,0-3.26c-0.02-39.01-0.02-78.03-0.09-117.04c-0.02-10.71,0-21.43-0.41-32.13
		c-0.38-9.83-2.26-19.4-6.82-28.27c-2.54-4.94-6.13-8.97-10.5-12.33c-0.32-0.25-0.64-0.51-0.95-0.77c0.09-0.23,0.19-0.45,0.28-0.68
		c4.52,1.63,9.16,3,13.54,4.96c11.39,5.1,18.18,14.06,21.28,26.13c2.36,9.21,3.51,18.54,3.54,28c0.1,30.26-0.02,60.52,0.12,90.78
		c0.04,8.19,0.88,16.33,4.09,24.03c3.06,7.35,9.03,10.98,16.52,13.24c0-0.97,0-1.66,0-2.35c-0.02-50.64,0.06-101.28-0.12-151.92
		c-0.05-13.27-0.46-26.58-3.23-39.66c-1.43-6.73-3.3-13.3-7.74-18.77c-5.17-6.37-12.23-9.52-19.91-11.54
		c-0.94-0.25-1.9-0.41-2.86-0.6c-0.12-0.02-0.26,0.08-0.63,0.22c0,2.79,0,5.67,0,9.13c-3.17-2.85-4.92-5.88-5.22-9.52
		c-0.76-9,6.05-17.19,15.05-17.96c3.06-0.26,5.59-1.04,8.21-2.79c9.66-6.45,20.38-7.33,31.48-5.01c14.61,3.06,26,11.07,34.48,23.28
		c4.37,6.3,6.5,13.56,8.05,20.99c2.86,13.7,3.4,27.59,3.4,41.52c-0.02,54.14-0.02,108.29-0.03,162.43c0,0.75,0,1.51,0,2.39
		c0.72-0.04,1.22,0.04,1.65-0.11c7.92-2.69,13.69-7.5,16.13-15.89c2.02-6.92,2.85-13.97,2.87-21.12c0.07-30.19-0.04-60.38,0.1-90.57
		c0.05-9.93,0.89-19.81,3.25-29.53c2.71-11.12,9.19-18.88,19.59-23.48c4.9-2.17,9.96-3.76,15.39-4.51c-0.48,0.43-0.93,0.9-1.44,1.28
		c-8.8,6.5-13.93,15.05-15.41,26.05c-1.49,11.09-1.29,22.21-1.32,33.33c-0.14,43.36-0.16,86.71-0.22,130.07
		c0,0.55-0.05,1.11-0.09,1.91c-13.4,0-26.75,0-40.38,0c0,20.38,0,40.51,0,60.83c-6.92,0-13.56,0-20.48,0c0-0.8,0-1.62,0-2.43
		c0-81.32,0.06-162.64-0.07-243.96c-0.02-11.96-1.31-23.84-5.31-35.27c-5.7-16.34-20.18-23.36-34.51-23
		c-4.37,0.11-8.56,0.96-12.59,2.62C263.26,157.47,262.77,157.8,262.18,158.12z" />
<path fill-rule="evenodd" clip-rule="evenodd" fill="#FFFFFF" d="M214.41,397.51c-7.17,0-14.04,0-21.23,0c0-2.26,0-4.44,0-6.92
		c-0.86,0.33-1.39,0.46-1.83,0.72c-8.7,5.13-18.23,6.7-28.13,6.47c-9.2-0.21-18.1-2.04-25.75-7.43
		c-13.55-9.56-21.9-22.62-23.74-39.25c-1.9-17.13,1.64-33.36,10.77-47.97c8.36-13.39,21.14-20.52,36.4-23.37
		c9.91-1.85,19.81-1.75,29.64,0.7c0.59,0.15,1.23,0.13,2.02,0.2c0.07-0.64,0.18-1.17,0.18-1.7c-0.08-9.81,0.25-19.64-0.37-29.41
		c-1.08-17.2-10.85-27.92-28.01-29.69c-9.6-0.99-19.07-0.53-28.13,3.24c-6.74,2.81-12.73,6.9-18.58,11.22
		c-1.83,1.35-3.7,2.65-5.74,3.82c2.28-7.95,3.72-16.15,8.42-23.09c4.14-6.11,10.27-9.35,17.2-11.09c14.28-3.59,28.63-3.83,42.7,0.69
		c17.69,5.69,28.31,18.21,32.39,36.24c1.11,4.93,1.74,10.09,1.76,15.14c0.12,46.16,0.05,92.32,0.04,138.48
		C214.41,395.45,214.41,396.36,214.41,397.51z M192.87,295.45c-8.74-1.2-17.12-1.92-25.5-0.28c-12.05,2.36-21.34,8.67-26.98,19.8
		c-5.18,10.24-7.11,21.17-5.86,32.56c1.13,10.3,4.57,19.55,12.91,26.37c13.41,10.99,34.36,8.41,41.84-10.99
		c2.92-7.57,3.84-15.44,3.84-23.45c-0.01-13.44-0.16-26.88-0.24-40.32C192.87,297.98,192.87,296.8,192.87,295.45z" />
<path fill-rule="evenodd" clip-rule="evenodd" fill="#FFFFFF" d="M417.62,319.56c0,2.74-0.01,5.24,0,7.75
		c0.06,10.85,0.06,21.71,0.23,32.56c0.08,5.4,0.8,10.75,2.69,15.84c3.38,9.06,10.38,13.88,19.34,16.26c2.69,0.71,5.44,1.17,8.42,1.8
		c0.28,1.38,0.59,2.92,0.96,4.72c-17.17,0-34.13,0-51.38,0c0-1.37,0-2.62,0-3.85c0.04-28.01,0.05-56.03,0.13-84.05
		c0.06-19.96,0.07-39.92,0.38-59.88c0.14-8.86,1.9-17.51,5.79-25.56c5.61-11.62,15-18.53,27.4-21.3c11.3-2.52,22.53-2.17,33.49,1.92
		c8.29,3.1,14.66,8.71,20.02,15.63c6.25,8.06,10.28,17.06,11.53,27.23c0.84,6.78,0.5,13.56-0.61,20.28
		c-1.53,9.22-4.2,18.09-8.97,26.17c-7.66,12.97-19.17,20.81-33.58,24.42c-11.18,2.8-22.45,2.91-33.7,0.23
		C419.13,319.57,418.45,319.62,417.62,319.56z M417.42,304.69c11.57,1.55,22.79,2.31,33.63-2.13c7.21-2.95,13.29-7.51,16.97-14.54
		c6.21-11.84,9.11-24.56,7.59-37.88c-1.5-13.12-8.11-23.14-20.54-28.41c-11.7-4.96-24.45-0.81-31.23,9.99
		c-4.71,7.5-6.33,15.96-6.43,24.65c-0.17,14.14,0,28.28,0.02,42.42C417.42,300.67,417.42,302.55,417.42,304.69z" />
<path fill-rule="evenodd" clip-rule="evenodd" fill="#FFFFFF" d="M70.31,148.78c-7.48-4.18-14.47-8.09-21.59-12.08
		c0.85-1.54,1.65-2.97,2.55-4.61c15.06,8.38,30.08,16.73,45.23,25.15c-0.84,1.54-1.63,2.97-2.5,4.57c-1.74-0.88-3.42-1.72-5.1-2.57
		c-0.11,0.12-0.22,0.25-0.34,0.37c0.37,1,0.7,2.02,1.11,3c3.37,8.06-4.7,19.29-14.73,17.02c-6.41-1.45-11.64-4.39-15.21-10.05
		c-4.9-7.77-0.59-19.28,9.27-20.28C69.18,149.28,69.36,149.16,70.31,148.78z M78.66,174.8c4.39-0.04,7.15-1.54,8.9-4.66
		c1.83-3.28,1.28-6.54-0.69-9.49c-3.37-5.05-8.25-7.95-14.07-9.33c-4.46-1.06-8,0.33-10.25,4.01c-2.34,3.83-2.03,7.35,1,10.94
		c0.58,0.69,1.21,1.36,1.88,1.96C69.46,171.81,74,174.33,78.66,174.8z" />
<path fill-rule="evenodd" clip-rule="evenodd" fill="#FFFFFF" d="M191.11,520.46c-0.04,13.15-12.81,28.13-30.6,21.6
		c-6.14-2.25-11.25-6-14.42-11.82c-4.72-8.66-1.77-20.84,6.37-27.42c8.22-6.64,18.73-6.73,27.85-0.27
		c5.16,3.65,9.21,8.09,10.46,14.54C190.99,518.26,191.01,519.46,191.11,520.46z M148.68,522.59c-0.03,12.46,10.74,20.64,21.21,17.45
		c9.16-2.78,13.72-9.87,16.04-18.6c1.81-6.83-0.88-13.24-6.87-17.59c-5.54-4.03-12.79-4.52-18.46-0.79
		C153.12,507.99,149.4,515.25,148.68,522.59z" />
<path fill-rule="evenodd" clip-rule="evenodd" fill="#FFFFFF" d="M470.2,494.97c5.09,5.51,9.86,10.67,14.74,15.95
		c-1.26,1.18-2.41,2.26-3.77,3.54c-9.69-10.41-19.31-20.76-28.98-31.15c1.29-1.21,2.45-2.3,3.8-3.57
		c3.95,4.23,7.92,8.48,11.82,12.67c2.32-0.71,16.44-13.59,19.87-18.07c-3.95-4.29-7.94-8.62-11.69-12.67
		c1.12-1.37,2.13-2.61,3.32-4.07c9.81,10.56,19.43,20.92,29.17,31.4c-1.34,1.21-2.52,2.26-3.88,3.49
		c-4.86-5.22-9.64-10.37-14.74-15.85C483.33,482.72,476.89,488.73,470.2,494.97z" />
<path fill-rule="evenodd" clip-rule="evenodd" fill="#FFFFFF" d="M432.09,28.51c6.28,3.7,12.48,7.13,18.45,10.95
		c3.51,2.25,5.5,5.67,4.18,10.06c-1.52,5.05-4.22,9.29-9.88,10.22c-5.93,0.97-11.41-0.75-16.55-3.68c-0.95-0.54-1.89-1.12-3.03-1.8
		c-3.46,6.51-6.83,12.83-10.23,19.23c-1.72-0.9-3.35-1.76-5.27-2.76C417.13,56.77,424.49,42.86,432.09,28.51z M426.21,52.41
		c3.3,1.36,6.23,2.82,9.31,3.77c3.84,1.19,7.28-0.02,10.13-2.8c3.66-3.58,4.89-9.65,1.76-12.42c-3.2-2.82-7.35-4.55-11.09-6.75
		c-0.08-0.05-0.26,0.07-0.54,0.15C432.72,40.11,429.63,45.95,426.21,52.41z" />
<path fill-rule="evenodd" clip-rule="evenodd" fill="#FFFFFF" d="M95.72,105.42c0.64-0.7,1.34-1.46,1.98-2.16
		c8.18,3.62,16.27,7.19,24.36,10.77c0.22-0.24,0.43-0.47,0.65-0.71c-3.82-8.17-7.65-16.34-11.46-24.49
		c0.79-0.77,1.62-1.58,2.41-2.35c4.79,10.63,9.6,21.32,14.47,32.13c-0.61,0.68-1.29,1.45-2,2.25c-7.95-3.56-15.84-7.09-23.74-10.62
		c-0.17,0.22-0.34,0.44-0.51,0.65c3.04,8.2,7.48,15.73,11.53,23.56c-0.77,0.87-1.54,1.73-2.29,2.57
		c-10.69-4.55-21.3-9.07-32.03-13.64c1.09-1.23,2.23-2.51,3.41-3.84c8.13,3.62,16.26,7.24,24.4,10.86c0.22-0.26,0.45-0.51,0.67-0.77
		C103.64,121.6,99.7,113.55,95.72,105.42z" />
<path fill-rule="evenodd" clip-rule="evenodd" fill="#FFFFFF" d="M77.28,193.54c-0.77,2.38-1.42,4.35-2.11,6.48
		c-6.61,0.43-13.32,0.86-20.15,1.3c-1.85,5.74-3.65,11.29-5.55,17.16c5.18,4.17,10.36,8.34,15.62,12.57
		c-0.38,1.24-0.77,2.49-1.22,3.97c-0.49-0.3-0.97-0.51-1.34-0.84C50.26,223.11,38,212.03,25.76,200.91
		c-0.58-0.53-0.87-1.39-1.56-2.52C42.25,196.74,59.6,195.16,77.28,193.54z M33.39,203.29c-0.14,0.27-0.28,0.54-0.42,0.81
		c4.7,4.08,9.4,8.16,14.46,12.54c1.71-5.27,3.24-10.01,4.92-15.21C45.73,202.08,39.56,202.68,33.39,203.29z" />
<path fill-rule="evenodd" clip-rule="evenodd" fill="#FFFFFF" d="M162.29,27.73c1.62-0.77,3.11-1.48,4.77-2.27
		c4.69,10.08,9.37,20.15,14.06,30.21c0.31,0.04,0.61,0.09,0.92,0.13c0.93-1.54,2.14-2.97,2.75-4.63c1.72-4.72,3.18-9.53,4.75-14.3
		c0.13-0.39,0.27-0.78,0.31-0.9c1.72-0.76,3.21-1.41,4.9-2.16c-2.74,6.23-5.39,12.26-8.16,18.57c7.68,3.52,15.17,6.95,22.96,10.53
		c-2.11,1-3.94,1.86-6,2.84c-6.65-3.1-13.39-6.56-20.48-9.16c-0.22,0.24-0.44,0.48-0.65,0.72c0.31,1.08,0.5,2.21,0.95,3.22
		c1.8,4,3.68,7.96,5.58,12.03c-1.61,0.76-3.09,1.47-4.77,2.26C176.88,59.13,169.63,43.52,162.29,27.73z" />
<path fill-rule="evenodd" clip-rule="evenodd" fill="#FFFFFF" d="M527.03,197.01c-1.08-2.21-1.96-4.02-2.85-5.86
		c2.95-6.88,5.89-13.77,8.84-20.66c-0.22-0.23-0.44-0.47-0.65-0.7c-0.99,0.23-2.05,0.3-2.95,0.72c-4.09,1.92-8.14,3.93-12.32,5.97
		c-0.78-1.55-1.52-3.02-2.38-4.71c15.43-7.55,30.9-15.12,46.5-22.76c0.75,1.5,1.49,2.96,2.36,4.7c-9.91,4.87-19.83,9.74-29.88,14.67
		c1.17,2.44,3.14,3.14,5.09,3.78c4.94,1.62,9.91,3.17,14.84,4.74c0.65,1.5,1.29,2.96,2.03,4.67c-6.23-2.61-12.31-5.15-18.56-7.76
		C533.73,181.58,530.47,189.1,527.03,197.01z" />
<path fill-rule="evenodd" clip-rule="evenodd" fill="#FFFFFF" d="M57.51,325.38c0.97,6.15,2.07,11.91,2.75,17.72
		c0.61,5.25-1.49,8.82-5.53,10.39c-5.17,2.01-10.54,0.77-13.6-3.25c-3.07-4.04-4.81-8.62-5.27-13.69c-0.03-0.35-0.04-0.7-0.1-1.04
		c-0.02-0.12-0.13-0.24-0.38-0.67c-6.2,1.06-12.54,2.14-19.01,3.25c-0.34-1.74-0.65-3.35-1.02-5.24
		C29.33,330.38,43.23,327.92,57.51,325.38z M37.38,334.41c0.97,3.29,1.63,6.34,2.77,9.19c1.3,3.25,4.07,4.84,7.46,5.33
		c4.84,0.7,9.87-2.28,9.95-6.36c0.07-3.76-0.7-7.54-1.09-11.25c-0.92,0-1.34-0.06-1.74,0.01C49.19,332.3,43.66,333.29,37.38,334.41z
		" />
<path fill-rule="evenodd" clip-rule="evenodd" fill="#FFFFFF" d="M290.73,12.14c0,1.04-0.01,1.93,0,2.82
		c0.07,6.16,0.11,12.31,0.26,18.47c0.03,1.3,0.32,2.65,0.78,3.88c1.44,3.88,4.11,5.52,8.28,5.29c3.96-0.22,6.52-2.18,7.33-6.22
		c0.57-2.85,0.71-5.82,0.77-8.74c0.12-5.1,0.03-10.2,0.03-15.43c1.76,0,3.32,0,5.1,0c0,10.9,0,21.76,0,32.75c-1.63,0-3.19,0-4.98,0
		c-0.1-1.55-0.19-3.1-0.32-5.17c-0.7,0.67-1.13,1.02-1.49,1.45c-3.58,4.3-10.09,5.82-15.19,3.47c-3.82-1.76-5.23-5.29-5.49-9.03
		c-0.43-5.99-0.3-12.02-0.39-18.03c-0.03-1.8,0-3.6,0-5.49C287.28,12.14,288.8,12.14,290.73,12.14z" />
<path fill-rule="evenodd" clip-rule="evenodd" fill="#FFFFFF" d="M70.81,452.12c3.95-0.98,7.91-1.91,11.84-2.96
		c3.89-1.05,7.74-2.23,11.69-3.37c0.57,0.78,1.13,1.55,1.72,2.36c-2.42,3.35-4.84,6.58-7.14,9.9c-2.24,3.23-4.36,6.55-6.53,9.83
		c0.16,0.21,0.32,0.42,0.48,0.64c7.84-1.99,15.69-3.97,23.61-5.98c0.58,0.84,1.17,1.68,1.75,2.5c-10.35,2.46-20.65,4.91-31.07,7.38
		c-0.51-0.7-1.07-1.48-1.61-2.23c4.52-6.44,8.99-12.8,13.45-19.16c-0.15-0.18-0.3-0.37-0.45-0.55c-7.81,1.16-15.24,3.85-22.83,6.14
		c-0.66-0.9-1.26-1.72-1.83-2.51c5.82-8.68,11.6-17.29,17.48-26.04c0.95,1.21,1.92,2.45,2.84,3.62
		c-4.67,6.68-9.27,13.27-13.88,19.86C70.51,451.73,70.66,451.92,70.81,452.12z" />
<path fill-rule="evenodd" clip-rule="evenodd" fill="#FFFFFF" d="M485.66,89.42c-0.08,9.25-8.38,17.82-17.2,17.75
		c-9.14-0.08-17.55-8.07-17.37-16.7c0.2-9.42,8.93-17.86,18.09-17.56C477.89,73.2,485.73,80.85,485.66,89.42z M481.66,85.19
		c0.27-2.97-1.24-5.42-3.89-7.23c-3.66-2.49-7.5-2.38-11.24-0.34c-5.09,2.77-8.65,7.04-10.64,12.44c-2.76,7.51,3,14.77,10.54,13.52
		C474.17,102.29,481.61,93.5,481.66,85.19z" />
<path fill-rule="evenodd" clip-rule="evenodd" fill="#FFFFFF" d="M132.1,78.69c-0.07-8.99,7.77-17,16.69-17.05
		c9.16-0.06,17,8.3,17.07,18.18c0.06,8.63-8.23,16.82-17.05,16.85C140.21,96.7,132.18,88.05,132.1,78.69z M161.49,81.45
		c-0.43-5.55-3.95-10.77-9.58-14.61c-3.66-2.5-7.58-3.22-11.47-0.42c-3.72,2.67-5.15,6.9-3.83,11.72c1.46,5.35,4.45,9.76,8.95,13.03
		c2.19,1.59,4.68,2.58,7.43,2.16C158.45,92.51,161.48,88.71,161.49,81.45z" />
<path fill-rule="evenodd" clip-rule="evenodd" fill="#FFFFFF" d="M306.62,101.18c6.73,9.72,7.58,20.65,6.65,32.35
		c0.46-0.52,1.02-0.99,1.37-1.58c3.89-6.46,9.06-11.46,16.08-14.37c0.83-0.35,1.71-0.59,2.57-0.85c0.16-0.05,0.37,0.05,0.82,0.12
		c-8.99,7.66-14.34,17.3-16.84,28.53c-4.49-2.64-8.9-5.24-13.51-7.95C308.04,125.76,309.7,113.66,306.62,101.18z" />
<path fill-rule="evenodd" clip-rule="evenodd" fill="#FFFFFF" d="M367.12,27.26c0.41-1.5,0.71-2.55,0.97-3.5
		c4.47-2.37,13.44-1.65,17.51,2.57c2.8,2.9,2.97,6.35,1.92,9.97c-1.51,5.22-3.09,10.43-4.7,15.62c-1.24,4-1.28,3.99,2.34,5.85
		c-1.44,1.29-2.88,0.65-4.26,0.33c-2.6-0.6-3.22-1.41-3.94-4.63c-3.22,0.44-6.42,1.43-9.53,1.18c-6.36-0.53-11.29-6.5-7.46-13.46
		c1.39-2.53,3.48-4.05,6.41-3.91c3.25,0.16,6.51,0.47,9.74,0.92c2.28,0.32,4.48,0.35,5.87-1.65c1.48-2.13,1.51-4.62,0.39-6.99
		c-2.33-4.95-9-6.67-13.55-3.56C368.37,26.31,367.95,26.64,367.12,27.26z M380.99,39.81c-4.07-0.08-7.74-0.5-11.34-0.12
		c-4.56,0.48-7.06,5.72-5,9.72c1.32,2.58,4.62,4.12,7.88,3.19c1.93-0.54,4.43-1.41,5.27-2.91
		C379.34,46.91,379.86,43.54,380.99,39.81z" />
<path fill-rule="evenodd" clip-rule="evenodd" fill="#FFFFFF" d="M556.18,201.84c0.96-0.35,1.92-0.69,2.84-1.03
		c5.25,3.09,8.69,10.09,7.84,15.85c-0.59,3.99-3.35,6.03-6.76,7.24c-4.91,1.75-9.93,3.19-14.84,4.92c-1.72,0.61-4.02,0.45-4.78,2.74
		c0.18,0.94,0.35,1.82,0.63,3.22c-3.92-3.33-4.07-6.1-1.06-9.99c-1.47-1.15-3.1-2.15-4.38-3.48c-3.04-3.14-4.55-6.88-3.31-11.29
		c1.01-3.58,3.78-5.22,7.22-5.83c3.3-0.59,5.93,0.65,7.69,3.44c1.52,2.41,2.81,4.97,4.14,7.5c2.1,4,4.05,5.2,6.87,4.14
		c3.84-1.44,6.04-5.41,5.15-9.18C562.5,206.11,560.28,203.34,556.18,201.84z M553.29,220.68c-2.27-3.42-4-6.52-6.23-9.22
		c-2.26-2.73-5.94-2.96-8.9-1.1c-2.41,1.52-3.4,4.66-2.39,7.56c1.01,2.89,5.37,6.4,7.7,5.83
		C546.56,223.01,549.55,221.88,553.29,220.68z" />
<path fill-rule="evenodd" clip-rule="evenodd" fill="#FFFFFF" d="M214.96,33.7c-0.48-1.41-0.81-2.42-1.16-3.46
		c3.34-4.38,7.61-7.01,13.01-7.63c4.27-0.48,7.94,1.62,9.51,5.97c2.11,5.83,3.88,11.79,5.65,17.74c0.97,3.25,1.37,3.63,4.59,2.78
		c-0.03,1.28-0.55,1.75-2.71,2.66c-2.66,1.11-4.73,0.31-6.47-2.27c-0.54,0.89-0.94,1.58-1.36,2.25c-3.23,5.19-10.14,7.52-14.87,5.02
		c-5-2.65-6.01-10.07-1.65-13.63c2.07-1.69,4.63-2.8,6.98-4.15c0.48-0.28,1.03-0.42,1.54-0.65c3.31-1.54,4.91-3.62,4.5-5.85
		c-0.62-3.43-3.69-6.19-7.12-6.38c-4.65-0.26-8.2,2.15-9.87,6.69C215.46,32.98,215.31,33.14,214.96,33.7z M233.61,36.96
		c-3.79,1.88-7.52,3.29-10.18,6.41c-2.23,2.62-2.06,6.69,0.26,9.19c2.04,2.2,5.81,2.72,8.36,0.61c1.75-1.44,2.94-3.59,4.25-5.51
		c0.29-0.42,0.21-1.23,0.05-1.79C235.52,43.01,234.61,40.17,233.61,36.96z" />
<path fill-rule="evenodd" clip-rule="evenodd" fill="#FFFFFF" d="M400.73,560.06c-1.46,0.62-2.72,1.16-4.31,1.84
		c-3.99-8.96-7.97-17.89-12.03-27.01c1.48-0.65,2.84-1.24,4.29-1.88c0.71,1.48,1.36,2.84,2.22,4.65c0.45-1.15,0.78-1.92,1.05-2.71
		c1.66-4.73,6.03-7.79,11-7.79c3.6,0.01,5.91,2.03,7.37,4.98c2.47,4.99,4.71,10.1,7.03,15.16c0.66,1.44,1.26,2.9,1.91,4.43
		c-1.46,0.66-2.71,1.23-4.19,1.91c-0.3-0.57-0.63-1.13-0.91-1.73c-2.76-5.86-5.4-11.78-8.32-17.56c-1.24-2.45-3.42-3.85-6.41-3.21
		c-3.29,0.71-6.16,2.29-6.54,5.84c-0.26,2.45,0.26,5.18,1.14,7.52C396,549.7,398.4,554.73,400.73,560.06z" />
<path fill-rule="evenodd" clip-rule="evenodd" fill="#FFFFFF" d="M559.75,414.74c-4.55-2.42-8.88-4.77-13.26-7.04
		c-1.97-1.02-3.96-2.09-6.07-2.75c-3.38-1.05-5.95-0.01-7.59,2.66c-2.2,3.58-2.25,6.75,0.5,9.35c2.14,2.03,4.71,3.66,7.26,5.17
		c3.47,2.06,7.1,3.83,10.66,5.74c0.35,0.19,0.65,0.49,1.04,0.79c-0.67,1.29-1.3,2.51-2.08,4c-8.65-4.6-17.27-9.19-26.02-13.85
		c0.73-1.44,1.37-2.72,2.09-4.14c1.45,0.69,2.86,1.37,4.64,2.22c-0.51-1.84-0.99-3.31-1.32-4.82c-0.97-4.4,2.37-10.77,6.66-12.02
		c1.73-0.5,4.01-0.44,5.63,0.28c5.39,2.4,10.59,5.22,15.86,7.89c1.36,0.69,2.68,1.45,4.15,2.26
		C561.2,411.89,560.55,413.15,559.75,414.74z" />
<path fill-rule="evenodd" clip-rule="evenodd" fill="#FFFFFF" d="M285.03,127.82c3.57-10.88,8.39-21,19.02-27.03
		c-7.58,9.78-10.51,21.27-12.37,33.3c-4.19-0.28-8.39-0.56-12.84-0.85c-0.99-8.66-3.8-16.81-9.07-24.57
		c4.02,2.29,7.04,5.06,9.29,8.47C281.28,120.52,283.04,124.21,285.03,127.82z" />
<path fill-rule="evenodd" clip-rule="evenodd" fill="#FFFFFF" d="M117.95,477.22c8.06-0.04,15.24,6.83,15.29,14.62
		c0.06,8.58-7.17,15.97-15.68,16.04c-8.01,0.07-15.5-7.03-15.55-14.73C101.95,484.86,109.56,477.26,117.95,477.22z M114.11,504.74
		c0.96-0.15,1.94-0.19,2.86-0.47c6.69-2.04,10.82-6.67,12.68-13.28c1.61-5.71-2.95-10.93-8.89-10.71
		c-6.48,0.24-13.93,7.89-15.09,13.65C104.5,499.7,108.49,504.62,114.11,504.74z" />
<path fill-rule="evenodd" clip-rule="evenodd" fill="#FFFFFF" d="M534.19,453.51c0,8.22-6.89,15.55-14.67,15.6
		c-8.14,0.05-16.12-7.87-16.08-15.97c0.03-8.08,7-15.36,14.69-15.37C526.7,437.77,534.18,445.09,534.19,453.51z M522.53,465.13
		c6.18,0.05,10.29-5.49,8.49-11.45c-1.81-6.01-8.36-11.26-14.86-11.94c-6.94-0.72-11.56,5.01-9.42,11.68
		C508.6,459.24,516.49,465.08,522.53,465.13z" />
<path fill-rule="evenodd" clip-rule="evenodd" fill="#FFFFFF" d="M560.91,388.97c-9.23-0.35-16.39-7.29-16.07-15.58
		c0.35-9.07,6.89-15.39,15.55-15.03c8.84,0.37,15.48,7.41,15.19,16.12C575.31,382.91,568.87,389.27,560.91,388.97z M564.84,384.28
		c2.78-0.26,5.83-1.26,7.63-4.63c1.72-3.22,1.46-6.26-0.48-9.28c-3.31-5.14-11.97-8.48-18.16-6.84c-1.38,0.37-2.84,0.9-3.95,1.76
		c-4.31,3.34-4.02,10.2,0.56,14.1C554.37,382.73,559.06,384.09,564.84,384.28z" />
<path fill-rule="evenodd" clip-rule="evenodd" fill="#FFFFFF" d="M427.98,521.37c-0.76-1.1-1.26-1.82-1.69-2.43
		c1.32-5.13,6.91-10.01,11.87-10.48c2.27-0.21,4.4,0.38,5.87,2.14c1.74,2.07,3.27,4.33,4.76,6.6c1.88,2.85,3.65,5.79,5.42,8.71
		c1.79,2.96,2.09,3.07,5.27,1.34c-0.24,1.83-1.4,2.61-2.56,3.38c-1.93,1.28-3.8,1-5.77-0.51c-0.29,0.92-0.51,1.69-0.78,2.44
		c-1.96,5.65-7.64,8.89-12.62,7.19c-4.28-1.47-6.48-7.39-3.75-11c1.83-2.42,4.26-4.38,6.49-6.48c2.61-2.46,3.26-4.05,2.3-6.11
		c-1.26-2.7-4.24-4.29-7.25-3.85C431.45,512.88,428.73,515.97,427.98,521.37z M444.93,519.89c-3,2.72-6.07,4.86-7.46,8.47
		c-1.06,2.75-0.13,5.56,2.22,7.23c2.02,1.43,4.96,1.27,6.99-0.39c2.08-1.69,3.84-6.13,2.88-7.87
		C448.22,524.92,446.64,522.62,444.93,519.89z" />
<path fill-rule="evenodd" clip-rule="evenodd" fill="#FFFFFF" d="M60.51,400.24c1.06-0.5,1.89-0.9,2.79-1.32
		c4.1,2.52,7.12,5.76,8.29,10.42c1.08,4.29-0.41,7.67-4.5,9.79c-4.82,2.49-9.77,4.75-14.68,7.06c-2.8,1.31-3.05,1.83-1.7,4.66
		c-1.78-0.04-2.28-1.42-2.92-2.54c-1.21-2.12-0.7-4.01,1.19-5.82c-0.89-0.42-1.62-0.74-2.32-1.11c-3.97-2.11-6.46-5.27-6.57-9.92
		c-0.08-3.14,1.9-5.83,4.98-7.06c2.92-1.16,5.67-0.93,7.8,1.57c1.66,1.95,3.18,4.04,4.61,6.17c2.59,3.86,4.66,4.82,7.43,3.22
		c3.19-1.84,4.45-6.12,2.81-9.53C66.33,402.93,64.89,401.78,60.51,400.24z M59.13,417.82c-0.16-2.71-4.82-8.27-7.63-9.22
		c-2.52-0.86-5.41,0-6.93,2.07c-1.39,1.89-1.4,4.93-0.04,6.9c1.58,2.28,5.53,4.38,7.29,3.66C54.33,420.21,56.73,418.95,59.13,417.82
		z" />
<path fill-rule="evenodd" clip-rule="evenodd" fill="#FFFFFF" d="M485.04,129.64c-1.21-1.33-2.28-2.5-3.55-3.9
		c12.58-11.78,25.17-23.57,37.83-35.42c1.26,1.37,2.38,2.58,3.58,3.88C510.33,105.96,497.75,117.74,485.04,129.64z" />
<path fill-rule="evenodd" clip-rule="evenodd" fill="#FFFFFF" d="M532.16,139.54c-1.74,0.52-3.21,0.97-4.9,1.48
		c0.37-1.51,0.77-2.69,0.92-3.9c0.4-3.23-2.04-6.41-5.27-7.01c-2.45-0.46-5.8,1.43-6.11,3.92c-0.27,2.07,0.17,4.27,0.51,6.38
		c0.33,2.05,1.15,4.03,1.38,6.09c0.61,5.31-4.41,9.85-9.71,8.94c-6.82-1.17-11.91-6.94-12.44-14.29c1.41-0.46,2.87-0.95,4.14-1.37
		c0,2.49-0.33,4.87,0.07,7.12c0.92,5.13,7.03,7.24,10.85,3.95c1.89-1.63,2.17-3.67,1.6-5.89c-0.55-2.16-1.22-4.29-1.91-6.41
		c-1.13-3.47-0.6-6.49,2.27-8.89c3.3-2.77,7.19-3.28,10.68-1.45C528.71,130.57,530.81,134.61,532.16,139.54z" />
<path fill-rule="evenodd" clip-rule="evenodd" fill="#FFFFFF" d="M375.62,563.86c0.23,0.93,0.44,1.77,0.71,2.87
		c-8.51,2.29-16.92,4.54-25.68,6.9c4.33-10.65,8.5-20.9,12.67-31.15c-0.16-0.19-0.32-0.38-0.49-0.56
		c-5.17,1.67-10.35,3.34-15.65,5.05c-0.27-0.87-0.5-1.64-0.82-2.66c7.61-2.05,15.13-4.07,23.24-6.25
		c-4.13,10.59-8.08,20.72-12.22,31.33C363.93,568.31,369.55,565.58,375.62,563.86z" />
<path fill-rule="evenodd" clip-rule="evenodd" fill="#FFFFFF" d="M293.27,547.89c-7.37,8.7-14.44,17.05-21.51,25.4
		c0.09,0.24,0.18,0.48,0.28,0.72c6.14,0,12.28,0,18.4,0c0,1.3,0,2.12,0,3.19c-8.78-0.62-17.43-1.23-26.57-1.88
		c7.47-8.59,14.73-16.93,21.98-25.27c-0.09-0.25-0.19-0.49-0.28-0.74c-5.42,0-10.84,0-16.58,0c0.2-1.31,0.31-2.1,0.47-3.13
		C277.3,546.75,285.09,547.31,293.27,547.89z" />
<path fill-rule="evenodd" clip-rule="evenodd" fill="#FFFFFF" d="M336,47.75c-1.69-0.25-3.3-0.49-5.22-0.77
		c1.49-10.77,2.98-21.5,4.49-32.37c1.69,0.23,3.3,0.44,5.13,0.69c-0.18,1.98-0.35,3.86-0.57,6.36c3.58-3.38,6.63-6.77,11.9-4.98
		c-0.51,1.66-1,3.23-1.53,4.93c-0.94-0.33-1.75-0.72-2.6-0.9c-3.57-0.78-6.94,0.98-7.96,4.72c-1.05,3.88-1.53,7.91-2.17,11.89
		C336.92,40.75,336.5,44.2,336,47.75z" />
<path fill-rule="evenodd" clip-rule="evenodd" fill="#FFFFFF" d="M208.25,530.96c1.47,0.5,2.84,0.97,4.43,1.52
		c-1.22,3.36-2.39,6.67-3.61,9.97c-2.69,7.25-5.27,14.54-8.15,21.72c-1.79,4.46-4.69,7.97-9.92,8.52c-1.22,0.13-2.48-0.09-3.86-0.15
		c-0.12-0.6-0.22-1.1-0.31-1.56c0.26-0.15,0.4-0.29,0.48-0.26c1.8,0.77,3.2,0.1,4.53-1.12c3.02-2.79,4.6-6.43,5.97-10.19
		c3.29-9.04,6.54-18.09,9.82-27.13C207.79,531.83,208.03,531.43,208.25,530.96z" />
<path fill-rule="evenodd" clip-rule="evenodd" fill="#FFFFFF" d="M253.43,546.12c-0.72,1.09-1.43,2.17-2.28,3.45
		c-1.63-3.64-3.98-6.03-7.82-6.49c-4.5-0.54-8.01,1.01-10.47,4.92c-2.57,4.09-3.48,8.5-2.48,13.21c1.5,7.06,8.72,10.58,15.43,7.61
		c0.69-0.31,1.37-0.66,2.42-1.17c-0.34,1.13-0.59,1.93-0.8,2.61c-8.83,4.12-20.58-1.07-22.21-10.01
		c-2.09-11.47,5.62-21.91,18.94-18.88C247.6,542.15,250.79,543.4,253.43,546.12z" />
<path fill-rule="evenodd" clip-rule="evenodd" fill="#FFFFFF" d="M55.54,373.54c-1.62,0.62-3.14,1.2-5.2,1.99
		c4.04,1.58,7.96,2.61,8.84,7.58c-1.61,0.28-3.11,0.53-4.63,0.8c-0.75-6.11-4.14-8.25-9.87-6.39c-5.22,1.69-10.42,3.48-15.62,5.23
		c-0.39,0.13-0.79,0.2-1.29,0.33c-0.48-1.43-0.93-2.79-1.45-4.37c9.26-3.2,18.48-6.39,27.81-9.62
		C54.64,370.67,55.07,372.03,55.54,373.54z" />
<path fill-rule="evenodd" clip-rule="evenodd" fill="#FFFFFF" d="M214.16,518.16c1.63,0.02,3.14,1.52,3.09,3.07
		c-0.05,1.54-1.42,2.93-2.93,2.96c-1.87,0.04-3.16-1.26-3.12-3.13C211.23,519.5,212.61,518.14,214.16,518.16z" />
</g>
</svg>
