<?xml version="1.0" encoding="utf-8"?>
<!-- Generator: Adobe Illustrator 16.0.0, SVG Export Plug-In . SVG Version: 6.00 Build 0)  -->
<!DOCTYPE svg PUBLIC "-//W3C//DTD SVG 1.1//EN" "http://www.w3.org/Graphics/SVG/1.1/DTD/svg11.dtd">
<svg version="1.1" id="Layer_1" xmlns="http://www.w3.org/2000/svg" xmlns:xlink="http://www.w3.org/1999/xlink" viewBox="0 0 600 327.13" enable-background="new 0 0 600 327.13" xml:space="preserve">
<g>
	<path fill-rule="evenodd" clip-rule="evenodd" fill="#282829" d="M45.23,277.23c-14.23,5.94-19.6,5.29-29.79,4.57
		c-4.84-0.34-10.59-1.17-12.37-6.71c-1.66-5.14,2.38-8.86,5.59-12.28c6.02-6.43,13.23-10.93,21.77-13.49
		c20.58-6.18,41.05-12.73,61.64-18.91c10.29-3.09,20.86-5.24,31.05-8.61c22.35-7.38,23.85-7.62,46.14-15.18
		c4.69-1.59,30.44-9.76,35.05-11.55c17.6-6.81,35.15-13.75,52.57-21c16.66-6.93,32.92-14.87,49.76-21.29
		c13.41-5.12,27.19-10.03,42.05-8.46c4.4,0.46,8.73,1.6,14.06,2.62c-1.79-7.71-5.35-14.87-7.78-22.35c-2.43-7.47-5.28-14.79-8-22.33
		c-4.95-0.79-10.14,4.14-14.26-0.6c-1.98-2.27-3.47-5.3-4.22-8.23c-1.56-6.08,1.04-9,10.38-13.58c-2.58,0.45-5.16,1.05-7.76,1.33
		c-6.5,0.72-9.81-1.72-11.31-8.12c-1.52-6.48,0.27-10.32,6.36-12.31c11.94-3.89,24.03-7.34,35.94-11.31
		c9.95-3.31,19.74-7.09,29.6-10.67c13.29-4.83,26.33-10.64,39.94-14.28c17.76-4.76,34.84-11.32,52.19-17.19
		c5.05-1.71,9.35,1,11.55,6.71c2.39,6.22,1.19,9.61-4.47,12.2c-3.17,1.45-6.43,2.72-9.65,4.07c0.22,0.6,0.43,1.2,0.65,1.8
		c2.6-0.83,5.17-1.76,7.81-2.47c5.11-1.38,8.2-0.28,10.97,3.72c3.08,4.47,3.67,10.73,0.89,14.03c-1.05,1.25-2.96,1.9-4.59,2.53
		c-2.39,0.93-4.89,1.6-7.74,2.51c11.83,34.98,23.48,69.39,35.1,103.76c5.37-1,10.38-1.94,15.41-2.88
		c3.49,5.53,6.26,10.35,3.96,16.14c-2.24,5.65-9.02,4.45-13.63,8.49c1.64,0.27,2.72,0.76,3.6,0.52c2.27-0.62,4.43-1.61,6.66-2.36
		c6.06-2.06,10.75,0.71,12.8,7.53c1.94,6.44-0.51,11.03-6.35,12.99c-21.86,7.34-43.62,14.96-65.49,22.26
		c-16.14,5.39-32.46,10.29-48.58,15.74c-12.9,4.37-25.68,9.11-38.41,13.94c-8.47,3.21-12.43,2.65-15.78-3.01
		c-3.64-6.13-2.34-11.66,3.97-16.98c-9.21-1.81-12.46-4.78-13.03-11.89c-0.43-5.43,1.95-7.88,12.45-12.19
		c-5.03-15.4-10.88-30.63-16.33-46.84c-8.3,13.87-22.49,18.64-35.49,24.76c-18.41,8.66-38.32,12.23-58.28,15.71
		c-11.8,2.06-23.41,5.62-34.85,9.29c-16.69,5.36-23.62,8.08-40.18,13.84c-0.49,0.17-10.53,3.69-11.04,3.8
		c-22.1,4.99-42.59,14.56-63.64,22.51"/>
	<path fill-rule="evenodd" clip-rule="evenodd" fill="#282829" d="M365.22,293.13c-1.41-2-2.31-3.24-3.19-4.51
		c-5.83-8.4-0.37-20.18,9.77-21.01c1.83-0.15,3.68-0.07,5.52-0.07c59.17,0,118.33-0.01,177.49-0.01c0.79,0,1.58,0.03,2.37,0
		c5.46-0.19,10.98,0.45,13.73,5.69c3.1,5.88,3.11,12.13-1.28,17.77c-0.31,0.39-0.45,0.91-1.04,2.15c4.2,0,8.05-0.01,11.9,0
		c4.83,0.02,9.31,1.11,13.27,4.08c5.78,4.34,7.06,10.34,5.81,16.88c-1.18,6.17-5.35,10.18-11.33,11.88
		c-2.98,0.84-6.21,1.11-9.33,1.12c-74.15,0.05-148.31,0.03-222.46,0.02c-1.05,0-2.1-0.01-3.15-0.03
		c-18.16-0.38-19.45-12.97-16.7-24.07c1.13-4.56,4.58-7.09,8.66-8.39c3.19-1.02,6.69-1.19,10.07-1.44
		C358.4,292.96,361.52,293.13,365.22,293.13z"/>
</g>
<g>
</g>
<g>
</g>
<g>
</g>
<g>
</g>
<g>
</g>
<g>
</g>
</svg>
