<?xml version="1.0" encoding="utf-8"?>
<!-- Generator: Adobe Illustrator 16.0.0, SVG Export Plug-In . SVG Version: 6.00 Build 0)  -->
<!DOCTYPE svg PUBLIC "-//W3C//DTD SVG 1.1//EN" "http://www.w3.org/Graphics/SVG/1.1/DTD/svg11.dtd">
<svg version="1.1" id="Layer_1" xmlns="http://www.w3.org/2000/svg" xmlns:xlink="http://www.w3.org/1999/xlink" x="0px" y="0px"
	 width="780.47px" height="189.47px" viewBox="0 0 780.47 189.47" enable-background="new 0 0 780.47 189.47" xml:space="preserve">
<path fill-rule="evenodd" clip-rule="evenodd" fill="#222223" d="M189.47,177.47c0,6.63-5.37,12-12,12H12c-6.63,0-12-5.37-12-12V12
	C0,5.37,5.37,0,12,0h165.47c6.63,0,12,5.37,12,12V177.47z"/>
<g>
	<path fill-rule="evenodd" clip-rule="evenodd" fill="#FFFFFF" d="M91.46,168.11c-2.87,0-5.68,0-8.54,0c0-8.56,0-17.05,0-25.64
		c-5.71,0-11.38,0-17.15,0c0-0.36,0-0.61,0-0.87c-0.02-15.88-0.04-31.75-0.08-47.63c-0.01-4.84-0.02-9.68-0.1-14.52
		c-0.06-3.88-0.66-7.67-2.09-11.31c-1.16-2.96-3.01-5.39-5.6-7.24c-0.14-0.1-0.27-0.22-0.4-0.33c0.02-0.06,0.04-0.13,0.07-0.19
		c1.41,0.42,2.84,0.78,4.23,1.27c2.82,1,5.33,2.48,7.37,4.72c1.93,2.11,2.96,4.66,3.68,7.36c0.73,2.71,1.17,5.47,1.27,8.27
		c0.08,2.18,0.17,4.36,0.18,6.54c0.02,10.98,0,21.96,0.01,32.93c0,3.21,0.12,6.43,0.89,9.57c0.61,2.47,1.53,4.78,3.75,6.3
		c1.19,0.82,2.47,1.46,4,1.87c0-0.35,0-0.64,0-0.92c-0.01-10.57-0.03-21.13-0.03-31.7c-0.01-9.83,0.05-19.65-0.02-29.48
		c-0.04-4.51-0.22-9.02-0.52-13.52c-0.23-3.46-0.84-6.88-2.07-10.17c-1.42-3.83-4.15-6.27-7.89-7.69c-1.02-0.38-2.08-0.65-3.12-0.95
		c-0.24-0.07-0.5-0.08-0.84-0.13c0,1.32,0,2.55,0,3.98c-0.33-0.27-0.54-0.41-0.7-0.59c-2.56-2.8-2.05-6.82,0.54-9.19
		c1.73-1.57,3.03-2.01,5.97-2.13c1.35-0.78,2.52-1.54,3.75-2.15c2.49-1.24,5.17-1.59,7.91-1.42c6.9,0.42,12.49,3.36,16.91,8.7
		c2.49,3.01,3.74,6.5,4.54,10.21c1.15,5.33,1.46,10.73,1.46,16.17c0,15.4,0.01,30.81,0,46.21c0,8.06-0.01,16.11-0.01,24.17
		c0,0.17,0.03,0.35,0.05,0.59c0.23-0.04,0.42-0.05,0.6-0.11c4-1.27,6.29-4.01,7.15-8.1c0.6-2.87,0.84-5.77,0.84-8.69
		c0.01-12.31-0.01-24.61,0.02-36.92c0.01-4.19,0.4-8.34,1.37-12.44c1.18-5.01,4.24-8.32,8.94-10.16c1.75-0.69,3.58-1.16,5.37-1.72
		c0.16-0.05,0.34-0.05,0.52-0.05c0.04,0,0.08,0.07,0.21,0.19c-0.31,0.24-0.59,0.47-0.87,0.7c-2.44,1.93-4.48,4.18-5.5,7.19
		c-0.73,2.16-1.14,4.4-1.18,6.67c-0.13,8.23-0.2,16.46-0.24,24.69c-0.06,13.37-0.08,26.74-0.12,40.1c0,0.62,0,1.23,0,1.92
		c-5.7,0-11.35,0-17.13,0c0,8.58,0,17.08,0,25.64c-2.96,0-5.79,0-8.75,0c0-0.35,0-0.69,0-1.03c0-15.17,0.01-30.34,0-45.51
		c0-19.09,0.04-38.19-0.04-57.28c-0.02-4.89-0.49-9.77-2.09-14.46c-1.17-3.42-3.08-6.3-6.33-8.08c-4.35-2.37-8.87-2.78-13.54-1
		c-0.23,0.09-0.45,0.21-0.84,0.4c0.81,0.29,1.47,0.5,2.11,0.75c4.62,1.77,7.6,5.13,9.33,9.68c1.06,2.79,1.65,5.69,2.05,8.64
		c0.83,6.1,0.83,12.23,0.83,18.36c-0.01,18.15-0.05,36.3-0.08,54.45c-0.02,11.45-0.03,22.9-0.04,34.35
		C91.46,167.64,91.46,167.87,91.46,168.11z"/>
	<path fill-rule="evenodd" clip-rule="evenodd" fill="#FFFFFF" d="M57.11,142.05c-3.09,0-6.06,0-9.12,0c0-0.93,0-1.83,0-2.9
		c-0.35,0.17-0.58,0.25-0.79,0.38c-2.73,1.58-5.71,2.29-8.83,2.57c-3.15,0.28-6.24,0-9.26-0.9c-3.74-1.1-6.74-3.29-9.21-6.27
		c-2.75-3.3-4.62-7.01-5.38-11.26c-0.41-2.28-0.43-4.58-0.23-6.88c0.3-3.56,1.12-7.02,2.45-10.35c2.71-6.8,7.61-11.24,14.56-13.38
		c5.14-1.59,10.38-1.69,15.63-0.5c0.17,0.04,0.34,0.08,0.52,0.11c0.08,0.01,0.17-0.02,0.32-0.05c0.01-0.22,0.03-0.45,0.03-0.67
		c-0.02-4.01,0.02-8.03-0.1-12.04c-0.09-3.2-1.08-6.14-3.19-8.61c-1.88-2.2-4.37-3.39-7.17-3.87c-6.34-1.09-12.32-0.19-17.72,3.5
		c-1.7,1.16-3.38,2.36-5.08,3.54c-0.28,0.2-0.58,0.36-0.87,0.55c-0.05-0.03-0.11-0.07-0.16-0.1c0.12-0.44,0.24-0.88,0.37-1.31
		c0.55-1.77,1.06-3.55,1.66-5.3c1.42-4.15,4.37-6.67,8.54-7.85c3.38-0.95,6.83-1.21,10.33-1.13c2.97,0.07,5.87,0.49,8.67,1.47
		c6.48,2.27,10.73,6.7,12.79,13.26c0.92,2.94,1.31,5.96,1.31,9.04c-0.03,19.27-0.05,38.53-0.07,57.8
		C57.11,141.25,57.11,141.6,57.11,142.05z M47.89,99.08c-3.55-0.54-6.98-0.81-10.42-0.19c-4.96,0.9-8.94,3.35-11.36,7.85
		c-3.08,5.75-3.78,11.85-1.94,18.13c1.23,4.2,3.79,7.38,7.95,9.02c4.96,1.95,10.38,0.34,13.23-4.5c1.77-3.02,2.49-6.36,2.53-9.81
		c0.08-6.46,0.01-12.91,0-19.37C47.89,99.86,47.89,99.51,47.89,99.08z"/>
	<path fill-rule="evenodd" clip-rule="evenodd" fill="#FFFFFF" d="M156.12,140.31c0.12,0.71,0.23,1.37,0.34,2.02
		c-1.07,0.32-20.38,0.37-21.81,0.06c0-0.99,0-1.99,0-2.99c0.02-18.73,0.04-37.47,0.08-56.2c0.01-3.66,0.27-7.29,1.37-10.82
		c1.37-4.38,3.78-7.97,7.89-10.22c2.33-1.27,4.83-1.96,7.46-2.28c3.44-0.42,6.81-0.22,10.14,0.72c3.26,0.92,6.02,2.65,8.32,5.11
		c3.06,3.26,5.27,6.99,6.25,11.39c0.71,3.14,0.72,6.31,0.28,9.49c-0.55,3.99-1.62,7.81-3.49,11.41c-2.38,4.59-6.05,7.78-10.72,9.84
		c-4.58,2.02-9.42,2.53-14.36,2.07c-1.54-0.15-3.07-0.45-4.69-0.7c-0.02,0.2-0.07,0.41-0.07,0.63c0.01,5.22-0.01,10.44,0.06,15.66
		c0.04,2.8,0.34,5.59,1.57,8.17c1.2,2.52,3.15,4.26,5.75,5.19c1.65,0.59,3.41,0.88,5.11,1.3
		C155.75,140.2,155.89,140.24,156.12,140.31z M143,102.79c0.76,0.1,1.37,0.18,1.98,0.25c3.12,0.36,6.24,0.45,9.32-0.26
		c4.19-0.97,7.76-2.98,9.88-6.82c2.81-5.07,3.97-10.58,3.26-16.36c-0.62-4.99-3.17-8.81-7.66-11.18c-2.43-1.28-5.03-1.61-7.71-0.91
		c-3.29,0.86-5.57,2.94-7.04,5.96c-1.41,2.89-1.98,5.98-2.03,9.15c-0.08,4.98-0.01,9.97,0,14.95C143,99.27,143,100.97,143,102.79z"
		/>
	<path fill-rule="evenodd" clip-rule="evenodd" fill="#FFFFFF" d="M94.77,32.44c2.19-7.66,2.3-9.1,1.14-15.44
		c0.78,0.48,1.72,2.05,2.23,4.1c0.39,1.56,0.7,3.16,0.82,4.76c0.12,1.59-0.04,3.19-0.09,4.99c2.12-3.69,4.89-6.4,9.06-7.35
		c-1.82,1.67-3.46,3.47-4.71,5.62c-1.24,2.12-2.09,4.38-2.61,6.74C98.67,34.73,96.75,33.6,94.77,32.44z"/>
	<path fill-rule="evenodd" clip-rule="evenodd" fill="#FFFFFF" d="M95.47,16.73c-3.34,4.34-3.87,5.66-5.67,14.32
		c-1.83-0.1-3.66-0.2-5.56-0.3c-0.39-3.8-1.67-7.32-3.82-10.53c3.26,1.81,5.2,4.67,6.42,8.23C89.04,21.96,92.19,17.67,95.47,16.73z"
		/>
</g>
<g>
	<rect x="219.47" y="22.27" fill="none" width="761.86" height="152.92"/>
	<path fill="#222223" d="M240.43,140.87h-14.27V22.27h14.27V140.87z M273.29,140.87h-14.27l-17.84-57.98V81.9l14.87-59.63h13.08
		l-15.02,58.97L273.29,140.87z"/>
	<path fill="#222223" d="M274.68,39.77h25.68c10.02,0,15.02,5.77,15.02,17.32v24.92c0,8.83-2.6,14.41-7.79,16.76l9.15,42.1h-12.43
		l-8.6-40.84h-7.92v40.84h-13.11V39.77z M287.79,88.49h8.6c3.91,0,5.87-2.44,5.87-7.32V59.34c0-4.88-1.96-7.32-5.87-7.32h-8.6V88.49
		z"/>
	<path fill="#222223" d="M332.04,128.62h22.13v12.25h-36.33l-0.96-4.79l20.63-83.93h-18.44V39.77h29.64l2.73,5.77L332.04,128.62z"/>
	<path fill="#222223" d="M380.81,140.87h-13.11V103.7l-16.12-63.93h12.98l9.83,43.93h0.41l8.88-43.93h12.98l-15.84,63.93V140.87z"/>
	<path fill="#222223" d="M423.28,66.95v-8.87c0-4.04-1.91-6.06-5.74-6.06h-2.05c-3.73,0-5.6,2.02-5.6,6.06v16.76
		c0,1.88,0.36,3.15,1.09,3.8c0.73,0.66,1.91,1.5,3.55,2.53l12.43,6.9c2.73,1.6,4.67,2.84,5.8,3.73c1.14,0.89,2.03,1.97,2.66,3.24
		c0.64,1.27,0.96,3.69,0.96,7.25v21.54c0,11.36-5.28,17.04-15.84,17.04h-8.06c-10.47,0-15.71-6.2-15.71-18.59v-5.07h13.11v5.49
		c0,3.94,1.96,5.91,5.87,5.91h2.32c3.46,0,5.19-1.97,5.19-5.91v-17.18c0-1.88-0.37-3.14-1.09-3.8c-0.73-0.66-1.91-1.5-3.55-2.53
		l-12.43-7.18c-2.73-1.5-4.71-2.77-5.94-3.8c-1.23-1.03-2.12-2.37-2.66-4.01c-0.55-1.64-0.82-3.78-0.82-6.41v-20.7
		c0-11.55,5.24-17.32,15.71-17.32h8.2c10.47,0,15.71,5.77,15.71,17.32v9.86H423.28z"/>
	<path fill="#222223" d="M453.06,128.62h22.13v12.25h-36.33l-0.96-4.79l20.63-83.93h-18.44V39.77h29.64l2.73,5.77L453.06,128.62z"/>
	<path fill="#222223" d="M498.95,52.02v88.85h-13.11V52.02h-12.57V39.77h38.25v12.25H498.95z"/>
	<path fill="#222223" d="M529.55,140.87c-10.56,0-15.84-5.73-15.84-17.18V57.09c0-11.55,5.24-17.32,15.71-17.32h12.57
		c10.47,0,15.71,5.77,15.71,17.32v66.61c0,11.45-5.28,17.18-15.84,17.18H529.55z M532.69,128.62h6.69c3.46,0,5.19-1.97,5.19-5.91
		V57.93c0-3.94-1.96-5.91-5.87-5.91h-6.15c-3.83,0-5.74,1.97-5.74,5.91v64.77C526.82,126.65,528.77,128.62,532.69,128.62z"/>
	<path fill="#222223" d="M593.88,82.72v12.25h-17.21v45.91h-13.11V39.77h32.51v12.25h-19.4v30.7H593.88z"/>
	<path fill="#222223" d="M648.83,91.98l12.79-69.71h15.23v118.6h-13.79l1.44-77.64l-10.35,56.16h-10.63l-10.35-56.16l1.44,77.64
		h-13.8V22.27h15.23L648.83,91.98z"/>
	<path fill="#222223" d="M697.01,140.87H683.9V57.09c0-11.55,5.24-17.32,15.71-17.32h9.83c10.47,0,15.71,5.77,15.71,17.32v83.78
		h-13.11v-37.03h-15.03V140.87z M712.04,91.59V57.93c0-3.94-1.91-5.91-5.74-5.91h-3.55c-3.82,0-5.74,1.97-5.74,5.91v33.65H712.04z"
		/>
	<path fill="#222223" d="M727.33,128.62h8.61c3.91,0,5.87-2.44,5.87-7.32V39.77h13.11v84.07c0,11.36-5.05,17.04-15.16,17.04h-12.43
		V128.62z"/>
</g>
<g>
	<rect x="222.47" y="145.48" fill="none" width="844.02" height="169.41"/>
	<path fill="#222223" d="M224.54,175.56l3.3-0.57v-25.86l-3.22-0.33v-1.91h10.21v1.91l-3.18,0.35v13.46l11.11-13.46l-3.03-0.35
		c0-0.33,0-0.64-0.01-0.96c-0.01-0.31-0.01-0.63-0.01-0.96h9.75v1.91l-3.18,0.35l-9.16,10.55c0.33,0.36,0.7,0.86,1.13,1.49
		c0.43,0.63,0.89,1.33,1.39,2.11c0.49,0.77,1.01,1.6,1.55,2.47c0.54,0.87,1.08,1.74,1.61,2.6c0.53,0.86,1.05,1.68,1.54,2.46
		c0.49,0.78,0.95,1.47,1.37,2.06c0.42,0.59,0.78,1.06,1.1,1.42c0.32,0.35,0.56,0.53,0.71,0.53l3.13,0.72v1.66h-6.04
		c-0.17,0-0.4-0.18-0.69-0.53s-0.63-0.82-1.01-1.42c-0.38-0.59-0.79-1.28-1.24-2.05c-0.45-0.77-0.91-1.58-1.39-2.43
		c-0.48-0.85-0.96-1.7-1.45-2.56s-0.97-1.67-1.44-2.44c-0.47-0.77-0.92-1.46-1.35-2.08c-0.43-0.62-0.82-1.1-1.17-1.46l-3.24,3.75v9
		l3.57,0.55v1.66h-10.68V175.56z"/>
	<path fill="#222223" d="M257.21,170.93c0.09-0.91,0.38-1.71,0.88-2.39c0.49-0.68,1.11-1.27,1.84-1.77c0.73-0.49,1.54-0.9,2.43-1.23
		c0.89-0.33,1.79-0.59,2.69-0.78s1.76-0.33,2.6-0.41c0.83-0.08,1.56-0.12,2.17-0.12v-1.7c0-1.03-0.14-1.87-0.41-2.51
		s-0.65-1.15-1.13-1.51c-0.48-0.36-1.05-0.61-1.7-0.74c-0.65-0.13-1.35-0.2-2.11-0.2c-0.38,0-0.8,0.04-1.27,0.11
		c-0.47,0.07-0.95,0.17-1.46,0.3c-0.5,0.13-1.01,0.29-1.51,0.47c-0.51,0.18-0.99,0.38-1.45,0.61l-0.72-1.76
		c0.48-0.39,1.07-0.73,1.77-1.03c0.7-0.29,1.41-0.54,2.15-0.73c0.74-0.2,1.45-0.34,2.15-0.43c0.7-0.09,1.29-0.14,1.79-0.14
		c1.03,0,2.01,0.11,2.94,0.32c0.93,0.21,1.75,0.59,2.45,1.13c0.7,0.54,1.26,1.27,1.67,2.19s0.62,2.09,0.62,3.51l-0.04,13.44h2.5
		v1.29c-0.46,0.25-1.02,0.45-1.69,0.61c-0.67,0.16-1.34,0.23-2.02,0.23c-0.23,0-0.49-0.02-0.76-0.05c-0.27-0.03-0.52-0.11-0.75-0.24
		c-0.23-0.13-0.42-0.33-0.57-0.61c-0.15-0.27-0.22-0.65-0.22-1.13v-0.55c-0.3,0.36-0.65,0.7-1.06,1.02s-0.88,0.59-1.41,0.82
		s-1.13,0.42-1.8,0.55c-0.67,0.13-1.42,0.2-2.24,0.2c-1.02,0-1.94-0.18-2.76-0.55c-0.83-0.36-1.52-0.86-2.07-1.47
		c-0.55-0.62-0.96-1.33-1.23-2.15C257.19,172.71,257.11,171.84,257.21,170.93z M261,171.01c0,0.77,0.1,1.42,0.31,1.95
		c0.21,0.53,0.51,0.97,0.91,1.3c0.4,0.33,0.88,0.57,1.46,0.72c0.57,0.15,1.22,0.22,1.93,0.22c0.39,0,0.79-0.05,1.19-0.16
		c0.4-0.1,0.79-0.23,1.16-0.39s0.72-0.33,1.04-0.54c0.32-0.2,0.58-0.4,0.77-0.6c0-1.22,0-2.44,0.01-3.64
		c0.01-1.2,0.02-2.42,0.03-3.64c-0.55,0-1.15,0.03-1.8,0.09c-0.65,0.06-1.3,0.16-1.95,0.3c-0.65,0.14-1.28,0.33-1.89,0.57
		c-0.61,0.23-1.15,0.53-1.62,0.89c-0.47,0.36-0.84,0.78-1.12,1.26C261.14,169.83,261,170.39,261,171.01z"/>
	<path fill="#222223" d="M284.68,175.56l2.66-0.39v-15.92l-2.77-1.52v-1.21l5.2-1.54l0.88,0.39v2.79c0.44-0.38,0.98-0.75,1.6-1.12
		s1.29-0.71,1.99-1.01c0.7-0.3,1.43-0.54,2.17-0.73c0.74-0.19,1.45-0.3,2.11-0.32c1.21-0.04,2.23,0.11,3.05,0.44
		s1.48,0.87,1.99,1.62c0.51,0.75,0.87,1.71,1.09,2.88c0.22,1.17,0.33,2.58,0.33,4.22v11.04l3.14,0.39v1.66h-9.84v-1.66l2.95-0.41
		v-10.33c0-1.18-0.06-2.23-0.18-3.13s-0.35-1.64-0.69-2.23c-0.35-0.59-0.82-1.02-1.44-1.29c-0.61-0.27-1.41-0.39-2.4-0.35
		c-0.81,0.04-1.66,0.22-2.56,0.54c-0.9,0.32-1.84,0.82-2.83,1.49v15.29l2.91,0.41v1.66h-9.36V175.56z"/>
	<path fill="#222223" d="M316.03,166.71c-0.01-1.8,0.25-3.42,0.8-4.86s1.3-2.68,2.26-3.71c0.96-1.03,2.08-1.83,3.38-2.4
		c1.3-0.57,2.69-0.89,4.19-0.96c0.55-0.01,1.1,0,1.67,0.03c0.57,0.03,1.1,0.09,1.6,0.18c0.5,0.08,0.96,0.19,1.38,0.32
		c0.42,0.13,0.75,0.28,1.02,0.45v4.69h-1.86l-1-2.46c-0.21-0.17-0.45-0.31-0.72-0.43s-0.55-0.21-0.84-0.29
		c-0.29-0.08-0.57-0.13-0.86-0.17c-0.29-0.03-0.55-0.05-0.78-0.05c-0.87,0-1.71,0.16-2.5,0.49c-0.79,0.33-1.5,0.82-2.11,1.47
		c-0.61,0.66-1.1,1.48-1.46,2.48c-0.36,1-0.55,2.17-0.57,3.51c-0.01,1.77,0.2,3.29,0.63,4.55c0.43,1.26,0.99,2.29,1.68,3.1
		c0.69,0.8,1.46,1.39,2.3,1.76c0.85,0.37,1.68,0.56,2.5,0.56c0.51,0,1.04-0.03,1.58-0.1c0.55-0.06,1.07-0.15,1.58-0.25
		c0.51-0.1,0.98-0.23,1.41-0.38c0.43-0.15,0.78-0.3,1.05-0.46l0.66,1.74c-0.38,0.34-0.85,0.64-1.41,0.9
		c-0.56,0.26-1.18,0.48-1.85,0.66c-0.67,0.18-1.37,0.32-2.11,0.42c-0.74,0.1-1.47,0.15-2.22,0.15c-1.51,0-2.85-0.27-4-0.82
		c-1.16-0.55-2.14-1.31-2.94-2.29s-1.41-2.13-1.83-3.47C316.25,169.72,316.04,168.28,316.03,166.71z"/>
	<path fill="#222223" d="M341.06,166.36c0-1.67,0.26-3.2,0.79-4.61s1.26-2.62,2.21-3.65c0.94-1.03,2.08-1.84,3.41-2.43
		c1.33-0.59,2.79-0.91,4.39-0.95c1.15-0.03,2.18,0.14,3.11,0.5c0.92,0.36,1.71,0.89,2.36,1.59c0.65,0.7,1.16,1.56,1.53,2.58
		s0.58,2.17,0.63,3.46c0.03,0.82,0.01,1.53-0.05,2.13c-0.06,0.6-0.12,1.13-0.19,1.6h-14.47c0,0.08,0,0.15,0,0.22
		c0,0.07,0.01,0.15,0.02,0.22c0.05,1.58,0.32,2.88,0.8,3.91c0.48,1.03,1.08,1.85,1.81,2.45s1.52,1.03,2.39,1.27
		c0.87,0.24,1.73,0.36,2.56,0.36c0.51,0,1.04-0.03,1.6-0.09c0.56-0.06,1.1-0.14,1.63-0.25c0.53-0.11,1.02-0.24,1.46-0.38
		c0.45-0.14,0.81-0.29,1.08-0.45l0.72,1.66c-0.38,0.34-0.87,0.64-1.47,0.92s-1.27,0.5-1.98,0.69c-0.72,0.19-1.46,0.33-2.25,0.43
		s-1.54,0.15-2.29,0.15c-1.58,0-2.97-0.27-4.19-0.81c-1.22-0.54-2.24-1.3-3.08-2.29c-0.83-0.98-1.47-2.17-1.9-3.56
		C341.28,169.64,341.06,168.08,341.06,166.36z M355.51,164.27c0.04-0.66,0.05-1.33,0.03-2c-0.02-0.67-0.1-1.31-0.24-1.91
		c-0.14-0.61-0.36-1.16-0.65-1.66c-0.29-0.5-0.69-0.91-1.18-1.22c-0.34-0.22-0.72-0.39-1.15-0.5c-0.43-0.11-0.92-0.17-1.46-0.17
		c-0.73,0-1.44,0.14-2.12,0.41s-1.3,0.71-1.84,1.31c-0.54,0.6-0.99,1.37-1.36,2.31c-0.36,0.94-0.6,2.09-0.7,3.43H355.51z"/>
	<path fill="#222223" d="M368.3,175.56l3.32-0.41v-26.45l-3.13-0.7v-1.7l6.11-0.82l0.78,0.45v29.22l3.48,0.41v1.66H368.3V175.56z"/>
	<path fill="#222223" d="M386.85,170.93c0.09-0.91,0.38-1.71,0.88-2.39c0.49-0.68,1.11-1.27,1.84-1.77c0.73-0.49,1.54-0.9,2.43-1.23
		c0.89-0.33,1.79-0.59,2.69-0.78s1.76-0.33,2.6-0.41c0.83-0.08,1.56-0.12,2.17-0.12v-1.7c0-1.03-0.14-1.87-0.41-2.51
		s-0.65-1.15-1.13-1.51c-0.48-0.36-1.05-0.61-1.7-0.74c-0.65-0.13-1.35-0.2-2.11-0.2c-0.38,0-0.8,0.04-1.27,0.11
		c-0.47,0.07-0.95,0.17-1.46,0.3c-0.5,0.13-1.01,0.29-1.51,0.47c-0.51,0.18-0.99,0.38-1.45,0.61l-0.72-1.76
		c0.48-0.39,1.07-0.73,1.77-1.03c0.7-0.29,1.41-0.54,2.15-0.73c0.74-0.2,1.45-0.34,2.15-0.43c0.7-0.09,1.29-0.14,1.79-0.14
		c1.03,0,2.01,0.11,2.94,0.32c0.93,0.21,1.75,0.59,2.45,1.13c0.7,0.54,1.26,1.27,1.67,2.19s0.62,2.09,0.62,3.51l-0.04,13.44h2.5
		v1.29c-0.46,0.25-1.02,0.45-1.69,0.61c-0.67,0.16-1.34,0.23-2.02,0.23c-0.23,0-0.49-0.02-0.76-0.05c-0.27-0.03-0.52-0.11-0.75-0.24
		c-0.23-0.13-0.42-0.33-0.57-0.61c-0.15-0.27-0.22-0.65-0.22-1.13v-0.55c-0.3,0.36-0.65,0.7-1.06,1.02s-0.88,0.59-1.41,0.82
		s-1.13,0.42-1.8,0.55c-0.67,0.13-1.42,0.2-2.24,0.2c-1.02,0-1.94-0.18-2.76-0.55c-0.83-0.36-1.52-0.86-2.07-1.47
		c-0.55-0.62-0.96-1.33-1.23-2.15C386.82,172.71,386.74,171.84,386.85,170.93z M390.63,171.01c0,0.77,0.1,1.42,0.31,1.95
		c0.21,0.53,0.51,0.97,0.91,1.3c0.4,0.33,0.88,0.57,1.46,0.72c0.57,0.15,1.22,0.22,1.93,0.22c0.39,0,0.79-0.05,1.19-0.16
		c0.4-0.1,0.79-0.23,1.16-0.39s0.72-0.33,1.04-0.54c0.32-0.2,0.58-0.4,0.77-0.6c0-1.22,0-2.44,0.01-3.64
		c0.01-1.2,0.02-2.42,0.03-3.64c-0.55,0-1.15,0.03-1.8,0.09c-0.65,0.06-1.3,0.16-1.95,0.3c-0.65,0.14-1.28,0.33-1.89,0.57
		c-0.61,0.23-1.15,0.53-1.62,0.89c-0.47,0.36-0.84,0.78-1.12,1.26C390.77,169.83,390.63,170.39,390.63,171.01z"/>
	<path fill="#222223" d="M413.81,175.56l3.16-0.41v-15.9l-2.77-1.52v-1.21l5.16-1.54l0.92,0.39v3.01c0.25-0.36,0.62-0.75,1.12-1.15
		c0.5-0.4,1.06-0.77,1.69-1.1s1.28-0.61,1.95-0.82c0.68-0.21,1.31-0.32,1.91-0.32c0.43,0,0.82,0.01,1.16,0.03
		c0.34,0.02,0.59,0.06,0.73,0.11v4c-0.21-0.08-0.42-0.16-0.64-0.24c-0.22-0.08-0.47-0.16-0.73-0.21c-0.27-0.06-0.57-0.11-0.91-0.15
		c-0.34-0.04-0.73-0.06-1.17-0.06c-1.05,0-1.94,0.13-2.66,0.4c-0.72,0.27-1.37,0.59-1.97,0.97v15.27l5.57,0.47v1.66h-12.52V175.56z"
		/>
	<path fill="#222223" d="M436.56,175.56l3.32-0.41v-16l-2.7-1.43v-1.21l5.41-1.54l0.88,0.39v19.79l3.16,0.41v1.66h-10.08V175.56z
		 M440.88,150.37c-0.31,0-0.62-0.06-0.92-0.17c-0.3-0.11-0.56-0.27-0.79-0.47c-0.23-0.2-0.41-0.45-0.55-0.75
		c-0.14-0.3-0.21-0.64-0.21-1.02c0-0.4,0.09-0.78,0.26-1.13s0.4-0.65,0.67-0.91s0.58-0.45,0.93-0.6c0.34-0.14,0.69-0.21,1.04-0.21
		c0.86,0,1.49,0.24,1.88,0.71c0.4,0.48,0.6,1.04,0.6,1.71c0,0.43-0.08,0.82-0.25,1.17c-0.17,0.35-0.39,0.65-0.66,0.89
		c-0.27,0.24-0.59,0.43-0.94,0.57S441.24,150.37,440.88,150.37z"/>
	<path fill="#222223" d="M454.74,170.93c0.09-0.91,0.38-1.71,0.88-2.39c0.49-0.68,1.11-1.27,1.84-1.77c0.73-0.49,1.54-0.9,2.43-1.23
		c0.89-0.33,1.79-0.59,2.69-0.78s1.76-0.33,2.6-0.41c0.83-0.08,1.56-0.12,2.17-0.12v-1.7c0-1.03-0.14-1.87-0.41-2.51
		s-0.65-1.15-1.13-1.51c-0.48-0.36-1.05-0.61-1.7-0.74c-0.65-0.13-1.35-0.2-2.11-0.2c-0.38,0-0.8,0.04-1.27,0.11
		c-0.47,0.07-0.95,0.17-1.46,0.3c-0.5,0.13-1.01,0.29-1.51,0.47c-0.51,0.18-0.99,0.38-1.45,0.61l-0.72-1.76
		c0.48-0.39,1.07-0.73,1.77-1.03c0.7-0.29,1.41-0.54,2.15-0.73c0.74-0.2,1.45-0.34,2.15-0.43c0.7-0.09,1.29-0.14,1.79-0.14
		c1.03,0,2.01,0.11,2.94,0.32c0.93,0.21,1.75,0.59,2.45,1.13c0.7,0.54,1.26,1.27,1.67,2.19s0.62,2.09,0.62,3.51l-0.04,13.44h2.5
		v1.29c-0.46,0.25-1.02,0.45-1.69,0.61c-0.67,0.16-1.34,0.23-2.02,0.23c-0.23,0-0.49-0.02-0.76-0.05c-0.27-0.03-0.52-0.11-0.75-0.24
		c-0.23-0.13-0.42-0.33-0.57-0.61c-0.15-0.27-0.22-0.65-0.22-1.13v-0.55c-0.3,0.36-0.65,0.7-1.06,1.02s-0.88,0.59-1.41,0.82
		s-1.13,0.42-1.8,0.55c-0.67,0.13-1.42,0.2-2.24,0.2c-1.02,0-1.94-0.18-2.76-0.55c-0.83-0.36-1.52-0.86-2.07-1.47
		c-0.55-0.62-0.96-1.33-1.23-2.15C454.71,172.71,454.63,171.84,454.74,170.93z M458.52,171.01c0,0.77,0.1,1.42,0.31,1.95
		c0.21,0.53,0.51,0.97,0.91,1.3c0.4,0.33,0.88,0.57,1.46,0.72c0.57,0.15,1.22,0.22,1.93,0.22c0.39,0,0.79-0.05,1.19-0.16
		c0.4-0.1,0.79-0.23,1.16-0.39s0.72-0.33,1.04-0.54c0.32-0.2,0.58-0.4,0.77-0.6c0-1.22,0-2.44,0.01-3.64
		c0.01-1.2,0.02-2.42,0.03-3.64c-0.55,0-1.15,0.03-1.8,0.09c-0.65,0.06-1.3,0.16-1.95,0.3c-0.65,0.14-1.28,0.33-1.89,0.57
		c-0.61,0.23-1.15,0.53-1.62,0.89c-0.47,0.36-0.84,0.78-1.12,1.26C458.66,169.83,458.52,170.39,458.52,171.01z"/>
	<path fill="#222223" d="M494.49,175.56l2.79-0.57l10.18-28.11h3.28l9.73,28.09l3.11,0.59v1.66h-10.31v-1.66l3.24-0.59l-2.11-6.29
		h-11.72l-2.11,6.29l3.26,0.59v1.66h-9.34V175.56z M513.63,166.4l-3.18-9.53l-1.86-5.88l-5.16,15.41H513.63z"/>
	<path fill="#222223" d="M538.82,177.69c-1.09,0-2.16-0.22-3.18-0.65s-1.94-1.11-2.72-2.01c-0.79-0.9-1.42-2.05-1.9-3.44
		s-0.72-3.03-0.72-4.93c0-1.74,0.29-3.35,0.88-4.81s1.39-2.72,2.4-3.78s2.21-1.88,3.58-2.47c1.37-0.59,2.85-0.89,4.42-0.89
		c0.69,0,1.36,0.05,2.01,0.14c0.65,0.09,1.21,0.21,1.68,0.37v-6.5l-4.16-0.7v-1.7l7.03-0.82l0.88,0.45v29.63h2.64v1.46
		c-0.22,0.12-0.5,0.23-0.83,0.33c-0.33,0.1-0.68,0.2-1.05,0.27s-0.75,0.14-1.13,0.18c-0.38,0.04-0.74,0.06-1.08,0.06
		c-0.23,0-0.48-0.02-0.73-0.05c-0.25-0.03-0.48-0.11-0.69-0.24c-0.21-0.13-0.38-0.33-0.52-0.61s-0.21-0.65-0.21-1.13v-0.49
		c-0.2,0.22-0.48,0.47-0.86,0.74s-0.85,0.53-1.41,0.76s-1.2,0.43-1.92,0.6C540.49,177.61,539.69,177.69,538.82,177.69z
		 M540.32,175.01c0.42,0,0.8-0.02,1.16-0.07c0.36-0.05,0.69-0.11,1.01-0.19c0.64-0.16,1.18-0.36,1.64-0.63
		c0.46-0.26,0.83-0.54,1.13-0.84v-14.94c-0.14-0.17-0.32-0.34-0.53-0.53c-0.21-0.18-0.48-0.35-0.81-0.51s-0.73-0.28-1.19-0.38
		s-1.01-0.15-1.63-0.15c-0.5,0-1.01,0.06-1.54,0.19c-0.53,0.12-1.06,0.33-1.58,0.62c-0.52,0.29-1.02,0.66-1.48,1.11
		c-0.47,0.46-0.89,1.01-1.25,1.67c-0.36,0.66-0.66,1.43-0.88,2.3s-0.34,1.88-0.35,3.02c-0.03,1.6,0.14,2.99,0.49,4.16
		s0.82,2.14,1.42,2.9s1.27,1.33,2.04,1.7S539.51,175.01,540.32,175.01z"/>
	<path fill="#222223" d="M559.87,157.79l-1.99-0.35v-2.07h8.52v2.07l-2.7,0.41l3.67,11.91l1.05,4.24l0.88-4.22l3.71-14.41h3.36
		l3.77,14.39l1.11,4.24l1.07-4.08l3.05-12.11l-2.42-0.37v-2.07h7.89v2.05l-2.44,0.45l-5.82,19.84h-3.44l-4.22-14.88l-0.51-2.91
		l-0.74,2.91l-3.93,14.88h-3.24L559.87,157.79z"/>
	<path fill="#222223" d="M597.61,165.85c0.03-1.74,0.33-3.3,0.91-4.68c0.58-1.37,1.34-2.54,2.29-3.49c0.95-0.95,2.05-1.68,3.29-2.19
		c1.24-0.51,2.54-0.77,3.9-0.78c1.65-0.01,3.09,0.27,4.32,0.86c1.22,0.59,2.24,1.39,3.04,2.41c0.8,1.02,1.4,2.22,1.79,3.6
		c0.39,1.38,0.58,2.86,0.57,4.43c-0.01,1.73-0.29,3.31-0.83,4.75c-0.54,1.43-1.27,2.66-2.19,3.68c-0.92,1.02-1.99,1.82-3.22,2.38
		s-2.55,0.85-3.96,0.85c-1.8,0-3.33-0.33-4.59-0.98c-1.26-0.65-2.29-1.52-3.09-2.62c-0.79-1.09-1.37-2.35-1.73-3.78
		C597.75,168.89,597.59,167.4,597.61,165.85z M607.69,175.5c1.11,0.03,2.04-0.16,2.8-0.57c0.76-0.4,1.38-1,1.86-1.79
		c0.47-0.79,0.82-1.76,1.04-2.93c0.21-1.17,0.32-2.5,0.32-4.01c0-1.31-0.12-2.54-0.34-3.68c-0.23-1.14-0.59-2.13-1.07-2.98
		c-0.49-0.85-1.11-1.51-1.86-2c-0.75-0.49-1.64-0.75-2.67-0.77c-1.11-0.01-2.05,0.18-2.82,0.58c-0.78,0.4-1.41,0.98-1.9,1.75
		c-0.5,0.77-0.86,1.71-1.08,2.81c-0.23,1.11-0.34,2.36-0.34,3.77c0,1.26,0.12,2.48,0.37,3.65c0.25,1.17,0.62,2.21,1.11,3.12
		c0.49,0.91,1.12,1.63,1.88,2.19C605.75,175.19,606.65,175.48,607.69,175.5z"/>
	<path fill="#222223" d="M626.51,175.56l3.2-0.43v-26.43l-3.52-0.7v-1.7l6.48-0.82l0.78,0.45v17.54l-0.1,3.01l8.69-8.96l-2.95-0.27
		v-2.07h9.22v2.07l-2.97,0.31l-6.64,6.68l8.26,10.92l2.66,0.41v1.66h-9.47v-1.66l2.71-0.45l-6.43-9l-3.11,3.09l0.12,3.79v2.19
		l2.81,0.39v1.66h-9.77V175.56z"/>
	<path fill="#222223" d="M656.27,170.93c0.09-0.91,0.38-1.71,0.88-2.39c0.49-0.68,1.11-1.27,1.84-1.77c0.73-0.49,1.54-0.9,2.43-1.23
		c0.89-0.33,1.79-0.59,2.69-0.78s1.76-0.33,2.6-0.41c0.83-0.08,1.55-0.12,2.17-0.12v-1.7c0-1.03-0.14-1.87-0.41-2.51
		s-0.65-1.15-1.13-1.51c-0.48-0.36-1.05-0.61-1.7-0.74c-0.65-0.13-1.36-0.2-2.11-0.2c-0.38,0-0.8,0.04-1.27,0.11
		c-0.47,0.07-0.96,0.17-1.46,0.3c-0.5,0.13-1.01,0.29-1.51,0.47c-0.51,0.18-0.99,0.38-1.45,0.61l-0.72-1.76
		c0.48-0.39,1.07-0.73,1.77-1.03c0.7-0.29,1.41-0.54,2.15-0.73c0.73-0.2,1.45-0.34,2.15-0.43c0.7-0.09,1.29-0.14,1.79-0.14
		c1.03,0,2.01,0.11,2.94,0.32c0.93,0.21,1.75,0.59,2.45,1.13c0.7,0.54,1.26,1.27,1.67,2.19s0.62,2.09,0.62,3.51l-0.04,13.44h2.5
		v1.29c-0.46,0.25-1.02,0.45-1.69,0.61c-0.67,0.16-1.35,0.23-2.02,0.23c-0.23,0-0.49-0.02-0.76-0.05c-0.27-0.03-0.53-0.11-0.75-0.24
		c-0.23-0.13-0.42-0.33-0.57-0.61c-0.15-0.27-0.22-0.65-0.22-1.13v-0.55c-0.3,0.36-0.65,0.7-1.06,1.02s-0.88,0.59-1.41,0.82
		s-1.13,0.42-1.8,0.55c-0.67,0.13-1.42,0.2-2.24,0.2c-1.02,0-1.94-0.18-2.76-0.55c-0.83-0.36-1.52-0.86-2.07-1.47
		c-0.55-0.62-0.96-1.33-1.23-2.15C656.25,172.71,656.17,171.84,656.27,170.93z M660.06,171.01c0,0.77,0.1,1.42,0.31,1.95
		c0.21,0.53,0.51,0.97,0.91,1.3c0.4,0.33,0.88,0.57,1.46,0.72c0.57,0.15,1.22,0.22,1.93,0.22c0.39,0,0.79-0.05,1.19-0.16
		c0.4-0.1,0.79-0.23,1.16-0.39s0.71-0.33,1.04-0.54c0.32-0.2,0.58-0.4,0.77-0.6c0-1.22,0-2.44,0.01-3.64
		c0.01-1.2,0.02-2.42,0.03-3.64c-0.55,0-1.15,0.03-1.8,0.09c-0.65,0.06-1.3,0.16-1.95,0.3c-0.65,0.14-1.28,0.33-1.89,0.57
		c-0.61,0.23-1.15,0.53-1.62,0.89c-0.47,0.36-0.84,0.78-1.12,1.26C660.2,169.83,660.06,170.39,660.06,171.01z"/>
	<path fill="#222223" d="M683.1,166.71c-0.01-1.8,0.25-3.42,0.8-4.86s1.3-2.68,2.26-3.71c0.96-1.03,2.08-1.83,3.38-2.4
		c1.29-0.57,2.69-0.89,4.19-0.96c0.55-0.01,1.1,0,1.67,0.03c0.57,0.03,1.1,0.09,1.6,0.18c0.5,0.08,0.96,0.19,1.38,0.32
		c0.42,0.13,0.75,0.28,1.02,0.45v4.69h-1.86l-1-2.46c-0.21-0.17-0.45-0.31-0.72-0.43s-0.55-0.21-0.84-0.29
		c-0.29-0.08-0.57-0.13-0.86-0.17c-0.29-0.03-0.55-0.05-0.78-0.05c-0.87,0-1.71,0.16-2.5,0.49c-0.79,0.33-1.5,0.82-2.11,1.47
		c-0.61,0.66-1.1,1.48-1.46,2.48c-0.37,1-0.55,2.17-0.57,3.51c-0.01,1.77,0.2,3.29,0.63,4.55c0.43,1.26,0.99,2.29,1.68,3.1
		c0.69,0.8,1.46,1.39,2.3,1.76c0.85,0.37,1.68,0.56,2.5,0.56c0.51,0,1.04-0.03,1.58-0.1c0.55-0.06,1.07-0.15,1.58-0.25
		c0.51-0.1,0.98-0.23,1.41-0.38c0.43-0.15,0.78-0.3,1.05-0.46l0.66,1.74c-0.38,0.34-0.85,0.64-1.41,0.9
		c-0.56,0.26-1.18,0.48-1.85,0.66c-0.67,0.18-1.38,0.32-2.11,0.42c-0.74,0.1-1.47,0.15-2.22,0.15c-1.51,0-2.85-0.27-4-0.82
		c-1.16-0.55-2.14-1.31-2.94-2.29s-1.41-2.13-1.83-3.47C683.33,169.72,683.11,168.28,683.1,166.71z"/>
	<path fill="#222223" d="M708.33,175.56l3.2-0.43v-26.43l-3.52-0.7v-1.7l6.48-0.82l0.78,0.45v17.54l-0.1,3.01l8.69-8.96l-2.95-0.27
		v-2.07h9.22v2.07l-2.97,0.31l-6.64,6.68l8.26,10.92l2.66,0.41v1.66h-9.47v-1.66l2.71-0.45l-6.43-9l-3.11,3.09l0.12,3.79v2.19
		l2.81,0.39v1.66h-9.77V175.56z"/>
	<path fill="#222223" d="M738.09,170.93c0.09-0.91,0.38-1.71,0.88-2.39c0.49-0.68,1.11-1.27,1.84-1.77c0.73-0.49,1.54-0.9,2.43-1.23
		c0.89-0.33,1.79-0.59,2.69-0.78s1.76-0.33,2.6-0.41c0.83-0.08,1.55-0.12,2.17-0.12v-1.7c0-1.03-0.14-1.87-0.41-2.51
		s-0.65-1.15-1.13-1.51c-0.48-0.36-1.05-0.61-1.7-0.74c-0.65-0.13-1.36-0.2-2.11-0.2c-0.38,0-0.8,0.04-1.27,0.11
		c-0.47,0.07-0.96,0.17-1.46,0.3c-0.5,0.13-1.01,0.29-1.51,0.47c-0.51,0.18-0.99,0.38-1.45,0.61l-0.72-1.76
		c0.48-0.39,1.07-0.73,1.77-1.03c0.7-0.29,1.41-0.54,2.15-0.73c0.73-0.2,1.45-0.34,2.15-0.43c0.7-0.09,1.29-0.14,1.79-0.14
		c1.03,0,2.01,0.11,2.94,0.32c0.93,0.21,1.75,0.59,2.45,1.13c0.7,0.54,1.26,1.27,1.67,2.19s0.62,2.09,0.62,3.51l-0.04,13.44h2.5
		v1.29c-0.46,0.25-1.02,0.45-1.69,0.61c-0.67,0.16-1.35,0.23-2.02,0.23c-0.23,0-0.49-0.02-0.76-0.05c-0.27-0.03-0.53-0.11-0.75-0.24
		c-0.23-0.13-0.42-0.33-0.57-0.61c-0.15-0.27-0.22-0.65-0.22-1.13v-0.55c-0.3,0.36-0.65,0.7-1.06,1.02s-0.88,0.59-1.41,0.82
		s-1.13,0.42-1.8,0.55c-0.67,0.13-1.42,0.2-2.24,0.2c-1.02,0-1.94-0.18-2.76-0.55c-0.83-0.36-1.52-0.86-2.07-1.47
		c-0.55-0.62-0.96-1.33-1.23-2.15C738.06,172.71,737.98,171.84,738.09,170.93z M741.88,171.01c0,0.77,0.1,1.42,0.31,1.95
		c0.21,0.53,0.51,0.97,0.91,1.3c0.4,0.33,0.88,0.57,1.46,0.72c0.57,0.15,1.22,0.22,1.93,0.22c0.39,0,0.79-0.05,1.19-0.16
		c0.4-0.1,0.79-0.23,1.16-0.39s0.71-0.33,1.04-0.54c0.32-0.2,0.58-0.4,0.77-0.6c0-1.22,0-2.44,0.01-3.64
		c0.01-1.2,0.02-2.42,0.03-3.64c-0.55,0-1.15,0.03-1.8,0.09c-0.65,0.06-1.3,0.16-1.95,0.3c-0.65,0.14-1.28,0.33-1.89,0.57
		c-0.61,0.23-1.15,0.53-1.62,0.89c-0.47,0.36-0.84,0.78-1.12,1.26C742.02,169.83,741.88,170.39,741.88,171.01z"/>
</g>
</svg>
