<?xml version="1.0" encoding="utf-8"?>
<!-- Generator: Adobe Illustrator 16.0.0, SVG Export Plug-In . SVG Version: 6.00 Build 0)  -->
<!DOCTYPE svg PUBLIC "-//W3C//DTD SVG 1.1//EN" "http://www.w3.org/Graphics/SVG/1.1/DTD/svg11.dtd">
<svg version="1.1" id="Layer_1" xmlns="http://www.w3.org/2000/svg" xmlns:xlink="http://www.w3.org/1999/xlink" x="0px" y="0px"
	 width="780.47px" height="189.47px" viewBox="0 0 780.47 189.47" enable-background="new 0 0 780.47 189.47" xml:space="preserve">
<path fill-rule="evenodd" clip-rule="evenodd" fill="#222223" d="M189.47,177.47c0,6.63-5.37,12-12,12H12c-6.63,0-12-5.37-12-12V12
	C0,5.37,5.37,0,12,0h165.47c6.63,0,12,5.37,12,12V177.47z"/>
<g>
	<path fill-rule="evenodd" clip-rule="evenodd" fill="#FFFFFF" d="M91.46,168.11c-2.87,0-5.68,0-8.54,0c0-8.56,0-17.05,0-25.64
		c-5.71,0-11.38,0-17.15,0c0-0.36,0-0.61,0-0.87c-0.02-15.88-0.04-31.75-0.08-47.63c-0.01-4.84-0.02-9.68-0.1-14.52
		c-0.06-3.88-0.66-7.67-2.09-11.31c-1.16-2.96-3.01-5.39-5.6-7.24c-0.14-0.1-0.27-0.22-0.4-0.33c0.02-0.06,0.04-0.13,0.07-0.19
		c1.41,0.42,2.84,0.78,4.23,1.27c2.82,1,5.33,2.48,7.37,4.72c1.93,2.11,2.96,4.66,3.68,7.36c0.73,2.71,1.17,5.47,1.27,8.27
		c0.08,2.18,0.17,4.36,0.18,6.54c0.02,10.98,0,21.96,0.01,32.93c0,3.21,0.12,6.43,0.89,9.57c0.61,2.47,1.53,4.78,3.75,6.3
		c1.19,0.82,2.47,1.46,4,1.87c0-0.35,0-0.64,0-0.92c-0.01-10.57-0.03-21.13-0.03-31.7c-0.01-9.83,0.05-19.65-0.02-29.48
		c-0.04-4.51-0.22-9.02-0.52-13.52c-0.23-3.46-0.84-6.88-2.07-10.17c-1.42-3.83-4.15-6.27-7.89-7.69c-1.02-0.38-2.08-0.65-3.12-0.95
		c-0.24-0.07-0.5-0.08-0.84-0.13c0,1.32,0,2.55,0,3.98c-0.33-0.27-0.54-0.41-0.7-0.59c-2.56-2.8-2.05-6.82,0.54-9.19
		c1.73-1.57,3.03-2.01,5.97-2.13c1.35-0.78,2.52-1.54,3.75-2.15c2.49-1.24,5.17-1.59,7.91-1.42c6.9,0.42,12.49,3.36,16.91,8.7
		c2.49,3.01,3.74,6.5,4.54,10.21c1.15,5.33,1.46,10.73,1.46,16.17c0,15.4,0.01,30.81,0,46.21c0,8.06-0.01,16.11-0.01,24.17
		c0,0.17,0.03,0.35,0.05,0.59c0.23-0.04,0.42-0.05,0.6-0.11c4-1.27,6.29-4.01,7.15-8.1c0.6-2.87,0.84-5.77,0.84-8.69
		c0.01-12.31-0.01-24.61,0.02-36.92c0.01-4.19,0.4-8.34,1.37-12.44c1.18-5.01,4.24-8.32,8.94-10.16c1.75-0.69,3.58-1.16,5.37-1.72
		c0.16-0.05,0.34-0.05,0.52-0.05c0.04,0,0.08,0.07,0.21,0.19c-0.31,0.24-0.59,0.47-0.87,0.7c-2.44,1.93-4.48,4.18-5.5,7.19
		c-0.73,2.16-1.14,4.4-1.18,6.67c-0.13,8.23-0.2,16.46-0.24,24.69c-0.06,13.37-0.08,26.74-0.12,40.1c0,0.62,0,1.23,0,1.92
		c-5.7,0-11.35,0-17.13,0c0,8.58,0,17.08,0,25.64c-2.96,0-5.79,0-8.75,0c0-0.35,0-0.69,0-1.03c0-15.17,0.01-30.34,0-45.51
		c0-19.09,0.04-38.19-0.04-57.28c-0.02-4.89-0.49-9.77-2.09-14.46c-1.17-3.42-3.08-6.3-6.33-8.08c-4.35-2.37-8.87-2.78-13.54-1
		c-0.23,0.09-0.45,0.21-0.84,0.4c0.81,0.29,1.47,0.5,2.11,0.75c4.62,1.77,7.6,5.13,9.33,9.68c1.06,2.79,1.65,5.69,2.05,8.64
		c0.83,6.1,0.83,12.23,0.83,18.36c-0.01,18.15-0.05,36.3-0.08,54.45c-0.02,11.45-0.03,22.9-0.04,34.35
		C91.46,167.64,91.46,167.87,91.46,168.11z"/>
	<path fill-rule="evenodd" clip-rule="evenodd" fill="#FFFFFF" d="M57.11,142.05c-3.09,0-6.06,0-9.12,0c0-0.93,0-1.83,0-2.9
		c-0.35,0.17-0.58,0.25-0.79,0.38c-2.73,1.58-5.71,2.29-8.83,2.57c-3.15,0.28-6.24,0-9.26-0.9c-3.74-1.1-6.74-3.29-9.21-6.27
		c-2.75-3.3-4.62-7.01-5.38-11.26c-0.41-2.28-0.43-4.58-0.23-6.88c0.3-3.56,1.12-7.02,2.45-10.35c2.71-6.8,7.61-11.24,14.56-13.38
		c5.14-1.59,10.38-1.69,15.63-0.5c0.17,0.04,0.34,0.08,0.52,0.11c0.08,0.01,0.17-0.02,0.32-0.05c0.01-0.22,0.03-0.45,0.03-0.67
		c-0.02-4.01,0.02-8.03-0.1-12.04c-0.09-3.2-1.08-6.14-3.19-8.61c-1.88-2.2-4.37-3.39-7.17-3.87c-6.34-1.09-12.32-0.19-17.72,3.5
		c-1.7,1.16-3.38,2.36-5.08,3.54c-0.28,0.2-0.58,0.36-0.87,0.55c-0.05-0.03-0.11-0.07-0.16-0.1c0.12-0.44,0.24-0.88,0.37-1.31
		c0.55-1.77,1.06-3.55,1.66-5.3c1.42-4.15,4.37-6.67,8.54-7.85c3.38-0.95,6.83-1.21,10.33-1.13c2.97,0.07,5.87,0.49,8.67,1.47
		c6.48,2.27,10.73,6.7,12.79,13.26c0.92,2.94,1.31,5.96,1.31,9.04c-0.03,19.27-0.05,38.53-0.07,57.8
		C57.11,141.25,57.11,141.6,57.11,142.05z M47.89,99.08c-3.55-0.54-6.98-0.81-10.42-0.19c-4.96,0.9-8.94,3.35-11.36,7.85
		c-3.08,5.75-3.78,11.85-1.94,18.13c1.23,4.2,3.79,7.38,7.95,9.02c4.96,1.95,10.38,0.34,13.23-4.5c1.77-3.02,2.49-6.36,2.53-9.81
		c0.08-6.46,0.01-12.91,0-19.37C47.89,99.86,47.89,99.51,47.89,99.08z"/>
	<path fill-rule="evenodd" clip-rule="evenodd" fill="#FFFFFF" d="M156.12,140.31c0.12,0.71,0.23,1.37,0.34,2.02
		c-1.07,0.32-20.38,0.37-21.81,0.06c0-0.99,0-1.99,0-2.99c0.02-18.73,0.04-37.47,0.08-56.2c0.01-3.66,0.27-7.29,1.37-10.82
		c1.37-4.38,3.78-7.97,7.89-10.22c2.33-1.27,4.83-1.96,7.46-2.28c3.44-0.42,6.81-0.22,10.14,0.72c3.26,0.92,6.02,2.65,8.32,5.11
		c3.06,3.26,5.27,6.99,6.25,11.39c0.71,3.14,0.72,6.31,0.28,9.49c-0.55,3.99-1.62,7.81-3.49,11.41c-2.38,4.59-6.05,7.78-10.72,9.84
		c-4.58,2.02-9.42,2.53-14.36,2.07c-1.54-0.15-3.07-0.45-4.69-0.7c-0.02,0.2-0.07,0.41-0.07,0.63c0.01,5.22-0.01,10.44,0.06,15.66
		c0.04,2.8,0.34,5.59,1.57,8.17c1.2,2.52,3.15,4.26,5.75,5.19c1.65,0.59,3.41,0.88,5.11,1.3
		C155.75,140.2,155.89,140.24,156.12,140.31z M143,102.79c0.76,0.1,1.37,0.18,1.98,0.25c3.12,0.36,6.24,0.45,9.32-0.26
		c4.19-0.97,7.76-2.98,9.88-6.82c2.81-5.07,3.97-10.58,3.26-16.36c-0.62-4.99-3.17-8.81-7.66-11.18c-2.43-1.28-5.03-1.61-7.71-0.91
		c-3.29,0.86-5.57,2.94-7.04,5.96c-1.41,2.89-1.98,5.98-2.03,9.15c-0.08,4.98-0.01,9.97,0,14.95C143,99.27,143,100.97,143,102.79z"
		/>
	<path fill-rule="evenodd" clip-rule="evenodd" fill="#FFFFFF" d="M94.77,32.44c2.19-7.66,2.3-9.1,1.14-15.44
		c0.78,0.48,1.72,2.05,2.23,4.1c0.39,1.56,0.7,3.16,0.82,4.76c0.12,1.59-0.04,3.19-0.09,4.99c2.12-3.69,4.89-6.4,9.06-7.35
		c-1.82,1.67-3.46,3.47-4.71,5.62c-1.24,2.12-2.09,4.38-2.61,6.74C98.67,34.73,96.75,33.6,94.77,32.44z"/>
	<path fill-rule="evenodd" clip-rule="evenodd" fill="#FFFFFF" d="M95.47,16.73c-3.34,4.34-3.87,5.66-5.67,14.32
		c-1.83-0.1-3.66-0.2-5.56-0.3c-0.39-3.8-1.67-7.32-3.82-10.53c3.26,1.81,5.2,4.67,6.42,8.23C89.04,21.96,92.19,17.67,95.47,16.73z"
		/>
</g>
<g>
	<rect x="207.9" y="51.87" fill="none" width="553.23" height="105.61"/>
	<path fill="#222223" d="M226.37,145.93H213.8V51.87h12.58V145.93z M255.32,145.93h-12.58l-15.72-45.98v-0.79l13.1-47.29h11.53
		l-13.23,46.77L255.32,145.93z"/>
	<path fill="#222223" d="M257.03,51.87h24.63c9.61,0,14.41,5.37,14.41,16.11v23.19c0,8.21-2.49,13.41-7.47,15.59l8.78,39.17h-11.92
		l-8.25-37.99h-7.6v37.99h-12.58V51.87z M269.6,97.2h8.25c3.75,0,5.63-2.27,5.63-6.81V70.08c0-4.54-1.88-6.81-5.63-6.81h-8.25V97.2z
		"/>
	<path fill="#222223" d="M312.04,134.53h21.22v11.4h-34.85l-0.92-4.45l19.78-78.08H299.6V51.87h28.43l2.62,5.37L312.04,134.53z"/>
	<path fill="#222223" d="M358.81,145.93h-12.58v-34.58l-15.46-59.47h12.44l9.43,40.87h0.39l8.52-40.87h12.44l-15.2,59.47V145.93z"/>
	<path fill="#222223" d="M399.55,77.15V68.9c0-3.75-1.83-5.63-5.5-5.63h-1.96c-3.58,0-5.37,1.88-5.37,5.63v15.59
		c0,1.75,0.35,2.93,1.05,3.54c0.7,0.61,1.83,1.4,3.41,2.36l11.92,6.42c2.62,1.49,4.47,2.64,5.57,3.47c1.09,0.83,1.94,1.83,2.55,3.01
		c0.61,1.18,0.92,3.43,0.92,6.75v20.04c0,10.57-5.07,15.85-15.2,15.85h-7.73c-10.04,0-15.06-5.76-15.06-17.29v-4.72h12.58v5.11
		c0,3.67,1.88,5.5,5.63,5.5h2.23c3.32,0,4.98-1.83,4.98-5.5v-15.98c0-1.75-0.35-2.93-1.05-3.54c-0.7-0.61-1.83-1.4-3.41-2.36
		l-11.92-6.68c-2.62-1.4-4.52-2.57-5.7-3.54c-1.18-0.96-2.03-2.2-2.55-3.73c-0.52-1.53-0.79-3.51-0.79-5.96V67.98
		c0-10.74,5.02-16.11,15.06-16.11h7.86c10.04,0,15.07,5.37,15.07,16.11v9.17H399.55z"/>
	<path fill="#222223" d="M428.11,134.53h21.22v11.4h-34.85l-0.92-4.45l19.78-78.08h-17.69V51.87h28.43l2.62,5.37L428.11,134.53z"/>
	<path fill="#222223" d="M472.12,63.27v82.66h-12.58V63.27H447.5v-11.4h36.68v11.4H472.12z"/>
	<path fill="#222223" d="M501.47,145.93c-10.13,0-15.2-5.33-15.2-15.98V67.98c0-10.74,5.02-16.11,15.06-16.11h12.05
		c10.04,0,15.06,5.37,15.06,16.11v61.96c0,10.66-5.07,15.98-15.2,15.98H501.47z M504.48,134.53h6.42c3.32,0,4.98-1.83,4.98-5.5
		V68.77c0-3.67-1.88-5.5-5.63-5.5h-5.89c-3.67,0-5.5,1.83-5.5,5.5v60.26C498.85,132.7,500.72,134.53,504.48,134.53z"/>
	<path fill="#222223" d="M563.17,91.83v11.4h-16.51v42.71h-12.58V51.87h31.18v11.4h-18.6v28.56H563.17z"/>
	<path fill="#222223" d="M611.37,107.15l11.66-55.28h13.89v94.06h-12.58l1.31-61.57l-9.43,44.54h-9.69l-9.43-44.54l1.31,61.57
		h-12.58V51.87h13.89L611.37,107.15z"/>
	<path fill="#222223" d="M656.17,145.93H643.6V67.98c0-10.74,5.02-16.11,15.06-16.11h9.43c10.04,0,15.06,5.37,15.06,16.11v77.94
		h-12.58v-34.45h-14.41V145.93z M670.58,100.08V68.77c0-3.67-1.83-5.5-5.5-5.5h-3.41c-3.67,0-5.5,1.83-5.5,5.5v31.31H670.58z"/>
	<path fill="#222223" d="M685.25,134.53h8.25c3.75,0,5.63-2.27,5.63-6.81V51.87h12.58v78.21c0,10.57-4.85,15.85-14.54,15.85h-11.92
		V134.53z"/>
</g>
<g>
	<rect x="211.47" y="146.48" fill="none" width="844.02" height="169.41"/>
	<path fill="#222223" d="M215.29,176.39l3.19-0.72l-1.32-25.18l-3.15-0.16l-0.1-1.86l9.95-0.52l0.1,1.86l-3.08,0.5l0.69,13.1
		l10.13-13.67l-2.97-0.19c-0.02-0.32-0.04-0.63-0.06-0.93c-0.02-0.3-0.04-0.61-0.06-0.93l9.49-0.5l0.1,1.86l-3.08,0.5l-8.38,10.74
		c0.34,0.34,0.73,0.8,1.18,1.4c0.45,0.59,0.94,1.25,1.46,1.98c0.52,0.73,1.07,1.5,1.64,2.33c0.57,0.82,1.14,1.64,1.7,2.45
		c0.56,0.81,1.11,1.58,1.63,2.32c0.52,0.74,1,1.38,1.44,1.94c0.44,0.56,0.82,1,1.15,1.32c0.33,0.33,0.57,0.48,0.72,0.48l3.08,0.54
		l0.08,1.62l-5.88,0.31c-0.16,0.01-0.4-0.15-0.7-0.48c-0.3-0.33-0.65-0.77-1.05-1.33s-0.84-1.2-1.31-1.93
		c-0.48-0.73-0.97-1.5-1.47-2.3c-0.51-0.8-1.02-1.61-1.54-2.42c-0.52-0.81-1.03-1.58-1.52-2.3s-0.97-1.38-1.42-1.96
		c-0.45-0.58-0.85-1.03-1.21-1.36l-2.97,3.82l0.46,8.77l3.51,0.35l0.08,1.62l-10.4,0.55L215.29,176.39z"/>
	<path fill="#222223" d="M242.75,171.73c0.04-0.89,0.29-1.68,0.73-2.37c0.45-0.69,1.01-1.3,1.7-1.81s1.45-0.96,2.31-1.32
		c0.85-0.36,1.71-0.66,2.57-0.9c0.86-0.24,1.7-0.41,2.51-0.53c0.81-0.12,1.51-0.19,2.1-0.22l-0.09-1.65c-0.05-1-0.23-1.81-0.53-2.42
		c-0.3-0.61-0.69-1.09-1.18-1.42c-0.49-0.33-1.05-0.54-1.69-0.64c-0.64-0.09-1.33-0.12-2.06-0.08c-0.37,0.02-0.78,0.08-1.23,0.17
		s-0.92,0.22-1.4,0.37c-0.48,0.15-0.96,0.33-1.45,0.53c-0.49,0.2-0.94,0.42-1.38,0.66l-0.79-1.67c0.45-0.4,1.01-0.77,1.67-1.09
		c0.66-0.32,1.35-0.59,2.05-0.82c0.71-0.23,1.4-0.4,2.07-0.53c0.67-0.12,1.25-0.2,1.73-0.22c1-0.05,1.96,0,2.88,0.16
		s1.73,0.49,2.44,0.98c0.71,0.49,1.29,1.17,1.74,2.04c0.45,0.87,0.71,2,0.78,3.38l0.65,13.09l2.43-0.13l0.07,1.26
		c-0.43,0.26-0.97,0.49-1.61,0.68c-0.65,0.19-1.3,0.3-1.96,0.33c-0.23,0.01-0.48,0.01-0.74-0.01c-0.27-0.02-0.52-0.08-0.74-0.2
		c-0.23-0.12-0.42-0.3-0.58-0.56c-0.16-0.26-0.25-0.62-0.28-1.09l-0.03-0.53c-0.27,0.37-0.6,0.72-0.98,1.04s-0.83,0.62-1.33,0.87
		c-0.5,0.26-1.08,0.46-1.72,0.62c-0.65,0.16-1.37,0.26-2.17,0.3c-0.99,0.05-1.9-0.08-2.72-0.39s-1.52-0.76-2.09-1.33
		c-0.57-0.57-1.01-1.25-1.31-2.03C242.82,173.46,242.7,172.63,242.75,171.73z M246.44,171.62c0.04,0.75,0.17,1.38,0.4,1.89
		c0.23,0.51,0.55,0.92,0.95,1.22c0.4,0.3,0.89,0.51,1.45,0.63c0.57,0.12,1.2,0.16,1.89,0.12c0.38-0.02,0.76-0.09,1.15-0.21
		s0.76-0.27,1.11-0.44c0.35-0.17,0.68-0.36,0.98-0.58c0.3-0.21,0.54-0.42,0.72-0.62c-0.06-1.19-0.12-2.37-0.18-3.55
		c-0.06-1.17-0.11-2.36-0.16-3.55c-0.53,0.03-1.11,0.09-1.75,0.18s-1.26,0.22-1.89,0.39s-1.23,0.39-1.82,0.65
		c-0.58,0.26-1.1,0.58-1.53,0.95c-0.44,0.37-0.78,0.8-1.03,1.28S246.41,171.01,246.44,171.62z"/>
	<path fill="#222223" d="M265.62,176.35l2.57-0.52l-0.81-15.5l-2.78-1.34l-0.06-1.18l4.98-1.77l0.88,0.34l0.14,2.72
		c0.41-0.39,0.91-0.78,1.5-1.18c0.59-0.39,1.22-0.75,1.89-1.08c0.67-0.33,1.36-0.6,2.07-0.82c0.71-0.22,1.39-0.36,2.04-0.42
		c1.18-0.1,2.17-0.01,2.99,0.27c0.82,0.28,1.49,0.77,2.02,1.48c0.53,0.7,0.94,1.62,1.21,2.75c0.27,1.13,0.45,2.49,0.54,4.09
		l0.56,10.74l3.08,0.22l0.08,1.62l-9.58,0.5l-0.08-1.62l2.85-0.55l-0.53-10.06c-0.06-1.15-0.17-2.16-0.33-3.03
		c-0.16-0.87-0.42-1.58-0.79-2.13c-0.37-0.55-0.85-0.95-1.46-1.18c-0.61-0.23-1.4-0.31-2.36-0.22c-0.78,0.08-1.6,0.3-2.46,0.65
		c-0.86,0.36-1.75,0.89-2.68,1.6l0.78,14.89l2.85,0.25l0.08,1.62l-9.11,0.48L265.62,176.35z"/>
	<path fill="#222223" d="M291.57,167.59c-0.1-1.75,0.07-3.34,0.53-4.78c0.46-1.44,1.13-2.68,2.01-3.73
		c0.88-1.05,1.94-1.89,3.17-2.51c1.23-0.62,2.58-1.01,4.03-1.15c0.53-0.04,1.07-0.06,1.63-0.06s1.08,0.03,1.57,0.09
		c0.49,0.06,0.94,0.14,1.36,0.24c0.41,0.11,0.75,0.23,1.01,0.39l0.24,4.56l-1.81,0.09l-1.1-2.35c-0.21-0.15-0.45-0.28-0.73-0.38
		c-0.27-0.1-0.55-0.18-0.83-0.24c-0.28-0.06-0.56-0.1-0.85-0.12c-0.28-0.02-0.54-0.02-0.76-0.01c-0.85,0.04-1.65,0.25-2.41,0.6
		c-0.76,0.36-1.42,0.87-1.98,1.54c-0.56,0.67-1,1.5-1.3,2.49c-0.3,0.99-0.43,2.14-0.37,3.44c0.08,1.72,0.36,3.19,0.84,4.4
		c0.48,1.21,1.08,2.18,1.79,2.93c0.71,0.74,1.49,1.28,2.33,1.59c0.84,0.32,1.66,0.46,2.46,0.41c0.49-0.03,1.01-0.08,1.54-0.18
		c0.53-0.09,1.04-0.2,1.53-0.33s0.94-0.27,1.35-0.44c0.41-0.17,0.75-0.33,1-0.5l0.74,1.66c-0.35,0.35-0.79,0.66-1.32,0.95
		c-0.53,0.28-1.12,0.53-1.76,0.74c-0.64,0.21-1.32,0.38-2.03,0.52c-0.71,0.13-1.43,0.22-2.15,0.26c-1.47,0.08-2.78-0.12-3.94-0.59
		c-1.16-0.47-2.15-1.16-2.98-2.07c-0.83-0.91-1.48-2-1.95-3.28C291.95,170.51,291.67,169.11,291.57,167.59z"/>
	<path fill="#222223" d="M311.81,167.3c-0.08-1.62,0.09-3.13,0.53-4.53c0.44-1.4,1.1-2.62,1.96-3.67c0.87-1.05,1.93-1.9,3.19-2.54
		c1.26-0.64,2.67-1.03,4.23-1.15c1.11-0.08,2.13,0.02,3.05,0.33c0.92,0.3,1.71,0.78,2.38,1.43c0.67,0.65,1.21,1.46,1.62,2.43
		c0.41,0.97,0.68,2.08,0.79,3.33c0.07,0.8,0.09,1.49,0.06,2.08s-0.06,1.11-0.1,1.57l-14.09,0.74c0,0.08,0.01,0.15,0.01,0.22
		c0,0.07,0.01,0.14,0.03,0.22c0.13,1.53,0.46,2.79,0.98,3.76s1.15,1.74,1.88,2.29c0.73,0.55,1.53,0.92,2.39,1.11
		c0.86,0.19,1.7,0.26,2.51,0.22c0.49-0.03,1.01-0.08,1.55-0.17c0.54-0.09,1.07-0.2,1.58-0.33s0.98-0.28,1.41-0.45
		c0.43-0.16,0.77-0.33,1.03-0.49l0.79,1.58c-0.35,0.35-0.81,0.67-1.39,0.97c-0.58,0.3-1.21,0.56-1.9,0.78
		c-0.69,0.22-1.41,0.4-2.17,0.53c-0.76,0.13-1.49,0.22-2.22,0.26c-1.53,0.08-2.91-0.11-4.12-0.58c-1.21-0.46-2.25-1.15-3.11-2.07
		c-0.86-0.91-1.54-2.04-2.04-3.37C312.19,170.48,311.9,168.98,311.81,167.3z M325.78,164.53c0-0.65-0.02-1.3-0.07-1.95
		s-0.17-1.27-0.34-1.85c-0.17-0.58-0.41-1.11-0.72-1.58s-0.72-0.85-1.21-1.13c-0.34-0.2-0.72-0.34-1.15-0.43
		c-0.42-0.09-0.9-0.11-1.43-0.09c-0.71,0.04-1.39,0.21-2.04,0.51c-0.65,0.3-1.23,0.76-1.72,1.37c-0.5,0.61-0.9,1.39-1.2,2.32
		c-0.31,0.94-0.48,2.06-0.51,3.37L325.78,164.53z"/>
	<path fill="#222223" d="M334.69,176.03l3.21-0.57l-1.35-25.75l-3.08-0.53l-0.09-1.65l5.91-1.11l0.78,0.4l1.49,28.45l3.41,0.22
		l0.08,1.62l-10.29,0.54L334.69,176.03z"/>
	<path fill="#222223" d="M348.4,171.73c0.04-0.89,0.29-1.68,0.73-2.37c0.45-0.69,1.01-1.3,1.7-1.81s1.45-0.96,2.31-1.32
		c0.85-0.36,1.71-0.66,2.57-0.9c0.86-0.24,1.7-0.41,2.51-0.53c0.81-0.12,1.51-0.19,2.1-0.22l-0.09-1.65c-0.05-1-0.23-1.81-0.53-2.42
		c-0.3-0.61-0.69-1.09-1.18-1.42c-0.49-0.33-1.05-0.54-1.69-0.64c-0.64-0.09-1.33-0.12-2.06-0.08c-0.37,0.02-0.78,0.08-1.23,0.17
		s-0.92,0.22-1.4,0.37c-0.48,0.15-0.96,0.33-1.45,0.53c-0.49,0.2-0.94,0.42-1.38,0.66l-0.79-1.67c0.45-0.4,1.01-0.77,1.67-1.09
		c0.66-0.32,1.35-0.59,2.05-0.82c0.71-0.23,1.4-0.4,2.07-0.53c0.67-0.12,1.25-0.2,1.73-0.22c1-0.05,1.96,0,2.88,0.16
		s1.73,0.49,2.44,0.98c0.71,0.49,1.29,1.17,1.74,2.04c0.45,0.87,0.71,2,0.78,3.38l0.65,13.09l2.43-0.13l0.07,1.26
		c-0.43,0.26-0.97,0.49-1.61,0.68c-0.65,0.19-1.3,0.3-1.96,0.33c-0.23,0.01-0.48,0.01-0.74-0.01c-0.27-0.02-0.52-0.08-0.74-0.2
		c-0.23-0.12-0.42-0.3-0.58-0.56c-0.16-0.26-0.25-0.62-0.28-1.09l-0.03-0.53c-0.27,0.37-0.6,0.72-0.98,1.04s-0.83,0.62-1.33,0.87
		c-0.5,0.26-1.08,0.46-1.72,0.62c-0.65,0.16-1.37,0.26-2.17,0.3c-0.99,0.05-1.9-0.08-2.72-0.39s-1.52-0.76-2.09-1.33
		c-0.57-0.57-1.01-1.25-1.31-2.03C348.47,173.46,348.34,172.63,348.4,171.73z M352.09,171.62c0.04,0.75,0.17,1.38,0.4,1.89
		c0.23,0.51,0.55,0.92,0.95,1.22c0.4,0.3,0.89,0.51,1.45,0.63c0.57,0.12,1.2,0.16,1.89,0.12c0.38-0.02,0.76-0.09,1.15-0.21
		s0.76-0.27,1.11-0.44c0.35-0.17,0.68-0.36,0.98-0.58c0.3-0.21,0.54-0.42,0.72-0.62c-0.06-1.19-0.12-2.37-0.18-3.55
		c-0.06-1.17-0.11-2.36-0.16-3.55c-0.53,0.03-1.11,0.09-1.75,0.18s-1.26,0.22-1.89,0.39s-1.23,0.39-1.82,0.65
		c-0.58,0.26-1.1,0.58-1.53,0.95c-0.44,0.37-0.78,0.8-1.03,1.28S352.06,171.01,352.09,171.62z"/>
	<path fill="#222223" d="M370.78,176.14l3.06-0.56l-0.81-15.48l-2.78-1.34l-0.06-1.18l4.94-1.77l0.91,0.33l0.15,2.93
		c0.22-0.37,0.57-0.76,1.03-1.18c0.47-0.42,1-0.81,1.59-1.16c0.59-0.35,1.21-0.65,1.86-0.9c0.65-0.24,1.26-0.38,1.85-0.41
		c0.42-0.02,0.8-0.03,1.13-0.03c0.34,0,0.58,0.02,0.72,0.07l0.2,3.9c-0.21-0.07-0.42-0.13-0.64-0.2c-0.22-0.07-0.46-0.13-0.72-0.17
		c-0.26-0.04-0.56-0.08-0.89-0.1c-0.33-0.02-0.71-0.02-1.14,0c-1.03,0.05-1.88,0.23-2.57,0.53c-0.68,0.3-1.31,0.64-1.87,1.04
		l0.78,14.87l5.44,0.17l0.08,1.62l-12.19,0.64L370.78,176.14z"/>
	<path fill="#222223" d="M388.81,176.02l3.21-0.57l-0.82-15.57l-2.7-1.25l-0.06-1.18l5.19-1.78l0.88,0.34l1.01,19.26l3.1,0.24
		l0.08,1.62l-9.81,0.51L388.81,176.02z M391.73,151.27c-0.3,0.02-0.61-0.02-0.9-0.11c-0.3-0.09-0.56-0.23-0.79-0.42
		c-0.23-0.19-0.42-0.42-0.57-0.7c-0.15-0.28-0.23-0.61-0.25-0.98c-0.02-0.39,0.05-0.77,0.2-1.12c0.15-0.35,0.36-0.66,0.61-0.92
		c0.25-0.26,0.54-0.47,0.87-0.63s0.66-0.24,1.01-0.26c0.84-0.04,1.46,0.16,1.87,0.6s0.63,0.99,0.67,1.63
		c0.02,0.42-0.04,0.8-0.19,1.15c-0.15,0.35-0.35,0.65-0.6,0.9c-0.25,0.25-0.55,0.45-0.88,0.6
		C392.43,151.16,392.08,151.25,391.73,151.27z"/>
	<path fill="#222223" d="M402.16,171.73c0.04-0.89,0.29-1.68,0.73-2.37c0.45-0.69,1.01-1.3,1.7-1.81s1.45-0.96,2.31-1.32
		c0.85-0.36,1.71-0.66,2.57-0.9c0.86-0.24,1.7-0.41,2.51-0.53c0.81-0.12,1.51-0.19,2.1-0.22l-0.09-1.65c-0.05-1-0.23-1.81-0.53-2.42
		c-0.3-0.61-0.69-1.09-1.18-1.42c-0.49-0.33-1.05-0.54-1.69-0.64c-0.64-0.09-1.33-0.12-2.06-0.08c-0.37,0.02-0.78,0.08-1.23,0.17
		s-0.92,0.22-1.4,0.37c-0.48,0.15-0.96,0.33-1.45,0.53c-0.49,0.2-0.94,0.42-1.38,0.66l-0.79-1.67c0.45-0.4,1.01-0.77,1.67-1.09
		c0.66-0.32,1.35-0.59,2.05-0.82c0.71-0.23,1.4-0.4,2.07-0.53c0.67-0.12,1.25-0.2,1.73-0.22c1-0.05,1.96,0,2.88,0.16
		s1.73,0.49,2.44,0.98c0.71,0.49,1.29,1.17,1.74,2.04c0.45,0.87,0.71,2,0.78,3.38l0.65,13.09l2.43-0.13l0.07,1.26
		c-0.43,0.26-0.97,0.49-1.61,0.68c-0.65,0.19-1.3,0.3-1.96,0.33c-0.23,0.01-0.48,0.01-0.74-0.01c-0.27-0.02-0.52-0.08-0.74-0.2
		c-0.23-0.12-0.42-0.3-0.58-0.56c-0.16-0.26-0.25-0.62-0.28-1.09l-0.03-0.53c-0.27,0.37-0.6,0.72-0.98,1.04s-0.83,0.62-1.33,0.87
		c-0.5,0.26-1.08,0.46-1.72,0.62c-0.65,0.16-1.37,0.26-2.17,0.3c-0.99,0.05-1.9-0.08-2.72-0.39s-1.52-0.76-2.09-1.33
		c-0.57-0.57-1.01-1.25-1.31-2.03C402.23,173.46,402.1,172.63,402.16,171.73z M405.85,171.62c0.04,0.75,0.17,1.38,0.4,1.89
		c0.23,0.51,0.55,0.92,0.95,1.22c0.4,0.3,0.89,0.51,1.45,0.63c0.57,0.12,1.2,0.16,1.89,0.12c0.38-0.02,0.76-0.09,1.15-0.21
		s0.76-0.27,1.11-0.44c0.35-0.17,0.68-0.36,0.98-0.58c0.3-0.21,0.54-0.42,0.72-0.62c-0.06-1.19-0.12-2.37-0.18-3.55
		c-0.06-1.17-0.11-2.36-0.16-3.55c-0.53,0.03-1.11,0.09-1.75,0.18s-1.26,0.22-1.89,0.39s-1.23,0.39-1.82,0.65
		c-0.58,0.26-1.1,0.58-1.53,0.95c-0.44,0.37-0.78,0.8-1.03,1.28S405.82,171.01,405.85,171.62z"/>
	<path fill="#222223" d="M432.87,176.53l2.69-0.69l8.47-27.88l3.19-0.17l10.9,26.85l3.05,0.41l0.08,1.62l-10.04,0.53l-0.08-1.62
		l3.13-0.74l-2.38-6.02l-11.41,0.6l-1.73,6.23l3.21,0.4l0.08,1.62l-9.09,0.48L432.87,176.53z M451.04,166.64l-3.59-9.12l-2.11-5.63
		l-4.23,15.27L451.04,166.64z"/>
	<path fill="#222223" d="M472.03,177.96c-1.06,0.06-2.11-0.1-3.13-0.47c-1.02-0.37-1.94-0.98-2.76-1.82
		c-0.81-0.84-1.49-1.92-2.03-3.25c-0.54-1.33-0.86-2.91-0.96-4.76c-0.09-1.7,0.11-3.28,0.61-4.73c0.5-1.46,1.21-2.72,2.15-3.8
		c0.94-1.08,2.06-1.94,3.36-2.59c1.31-0.65,2.73-1.01,4.26-1.09c0.67-0.04,1.33-0.02,1.97,0.03c0.64,0.06,1.19,0.15,1.65,0.28
		l-0.33-6.33l-4.09-0.47l-0.09-1.65l6.8-1.16l0.88,0.39l1.51,28.85l2.57-0.13l0.07,1.43c-0.21,0.13-0.47,0.25-0.79,0.37
		s-0.66,0.23-1.01,0.32c-0.36,0.09-0.72,0.17-1.09,0.23s-0.72,0.09-1.05,0.11c-0.23,0.01-0.47,0.01-0.72-0.01
		c-0.25-0.02-0.48-0.09-0.69-0.2c-0.21-0.12-0.39-0.3-0.53-0.56c-0.15-0.26-0.23-0.62-0.26-1.09l-0.02-0.48
		c-0.18,0.23-0.45,0.48-0.8,0.77c-0.35,0.29-0.8,0.56-1.33,0.81c-0.53,0.26-1.15,0.48-1.84,0.68
		C473.65,177.79,472.88,177.91,472.03,177.96z M473.35,175.28c0.41-0.02,0.78-0.06,1.13-0.13c0.35-0.06,0.67-0.14,0.97-0.23
		c0.61-0.18,1.13-0.42,1.57-0.69c0.43-0.28,0.78-0.57,1.06-0.88l-0.76-14.55c-0.15-0.16-0.33-0.32-0.54-0.49s-0.48-0.32-0.81-0.45
		s-0.72-0.24-1.18-0.31c-0.46-0.07-0.99-0.09-1.6-0.06c-0.48,0.03-0.98,0.11-1.49,0.26c-0.51,0.15-1.02,0.37-1.51,0.68
		c-0.49,0.31-0.96,0.69-1.39,1.16c-0.43,0.47-0.81,1.03-1.13,1.69c-0.32,0.66-0.57,1.42-0.74,2.29c-0.17,0.87-0.23,1.85-0.19,2.96
		c0.06,1.56,0.29,2.9,0.69,4.03c0.4,1.12,0.91,2.04,1.53,2.75s1.31,1.23,2.07,1.55C471.79,175.18,472.57,175.32,473.35,175.28z"/>
	<path fill="#222223" d="M487.39,159.22l-1.96-0.24l-0.11-2.02l8.29-0.43l0.11,2.02l-2.6,0.54l4.18,11.41l1.24,4.07l0.64-4.15
		l2.88-14.22l3.27-0.17l4.4,13.82l1.3,4.07l0.84-4.03l2.35-11.95l-2.38-0.24l-0.11-2.02l7.68-0.4l0.1,2l-2.35,0.56l-4.65,19.62
		l-3.35,0.18l-4.87-14.28l-0.64-2.81l-0.57,2.87l-3.06,14.69l-3.16,0.17L487.39,159.22z"/>
	<path fill="#222223" d="M520.44,166.85c-0.06-1.7,0.15-3.23,0.65-4.6c0.49-1.37,1.18-2.54,2.06-3.51c0.88-0.97,1.91-1.74,3.09-2.3
		c1.18-0.56,2.44-0.88,3.75-0.96c1.61-0.1,3.02,0.11,4.25,0.62c1.22,0.51,2.25,1.24,3.08,2.19c0.83,0.95,1.47,2.09,1.92,3.42
		c0.45,1.32,0.71,2.75,0.78,4.29c0.08,1.69-0.11,3.24-0.57,4.66c-0.45,1.42-1.1,2.65-1.94,3.7s-1.85,1.87-3.02,2.48
		s-2.44,0.96-3.81,1.03c-1.75,0.09-3.26-0.15-4.52-0.72s-2.31-1.37-3.14-2.39s-1.45-2.22-1.88-3.59
		C520.73,169.8,520.49,168.36,520.44,166.85z M530.75,175.73c1.08-0.03,1.98-0.26,2.7-0.69c0.72-0.43,1.29-1.04,1.72-1.83
		c0.42-0.79,0.71-1.76,0.86-2.91c0.15-1.15,0.19-2.45,0.11-3.92c-0.07-1.28-0.24-2.47-0.52-3.57c-0.28-1.1-0.68-2.05-1.2-2.85
		c-0.52-0.8-1.15-1.42-1.91-1.85c-0.75-0.44-1.63-0.64-2.64-0.62c-1.08,0.04-1.98,0.28-2.72,0.71c-0.73,0.43-1.32,1.03-1.77,1.8
		c-0.44,0.77-0.75,1.7-0.91,2.79c-0.17,1.09-0.21,2.32-0.14,3.69c0.06,1.23,0.25,2.41,0.55,3.54s0.71,2.12,1.24,2.98
		s1.18,1.53,1.95,2.03C528.84,175.52,529.73,175.76,530.75,175.73z"/>
	<path fill="#222223" d="M544.96,176.31l3.1-0.58L546.71,150l-3.46-0.51l-0.09-1.65l6.27-1.13l0.78,0.4l0.89,17.08l0.06,2.93
		l8.01-9.17l-2.89-0.12l-0.11-2.02l8.98-0.47l0.11,2.02l-2.88,0.46l-6.13,6.84l8.6,10.21l2.61,0.26l0.08,1.62l-9.22,0.48l-0.08-1.62
		l2.62-0.58l-6.71-8.44l-2.87,3.16l0.31,3.68l0.11,2.13l2.76,0.24l0.09,1.62l-9.51,0.5L544.96,176.31z"/>
	<path fill="#222223" d="M569.58,171.73c0.04-0.89,0.29-1.68,0.73-2.37c0.45-0.69,1.01-1.3,1.7-1.81s1.45-0.96,2.3-1.32
		c0.85-0.36,1.71-0.66,2.58-0.9c0.86-0.24,1.7-0.41,2.51-0.53c0.81-0.12,1.51-0.19,2.1-0.22l-0.09-1.65c-0.05-1-0.23-1.81-0.53-2.42
		s-0.69-1.09-1.18-1.42c-0.49-0.33-1.05-0.54-1.69-0.64c-0.64-0.09-1.33-0.12-2.06-0.08c-0.37,0.02-0.78,0.08-1.23,0.17
		c-0.45,0.09-0.92,0.22-1.4,0.37c-0.48,0.15-0.96,0.33-1.45,0.53c-0.49,0.2-0.95,0.42-1.38,0.66l-0.79-1.67
		c0.45-0.4,1.01-0.77,1.67-1.09c0.66-0.32,1.35-0.59,2.05-0.82c0.71-0.23,1.4-0.4,2.07-0.53c0.67-0.12,1.25-0.2,1.73-0.22
		c1-0.05,1.96,0,2.88,0.16s1.73,0.49,2.45,0.98c0.71,0.49,1.29,1.17,1.74,2.04c0.45,0.87,0.71,2,0.78,3.38l0.65,13.09l2.43-0.13
		l0.07,1.26c-0.43,0.26-0.97,0.49-1.61,0.68c-0.65,0.19-1.3,0.3-1.96,0.33c-0.23,0.01-0.48,0.01-0.74-0.01s-0.52-0.08-0.74-0.2
		c-0.23-0.12-0.42-0.3-0.58-0.56c-0.16-0.26-0.25-0.62-0.28-1.09l-0.03-0.53c-0.27,0.37-0.6,0.72-0.98,1.04
		c-0.38,0.33-0.83,0.62-1.33,0.87c-0.5,0.26-1.08,0.46-1.72,0.62c-0.65,0.16-1.37,0.26-2.17,0.3c-0.99,0.05-1.9-0.08-2.72-0.39
		c-0.82-0.31-1.52-0.76-2.09-1.33s-1.01-1.25-1.31-2.03C569.65,173.46,569.53,172.63,569.58,171.73z M573.28,171.62
		c0.04,0.75,0.17,1.38,0.4,1.89c0.23,0.51,0.55,0.92,0.95,1.22c0.4,0.3,0.89,0.51,1.45,0.63c0.57,0.12,1.2,0.16,1.89,0.12
		c0.38-0.02,0.76-0.09,1.15-0.21c0.39-0.12,0.76-0.27,1.11-0.44c0.35-0.17,0.68-0.36,0.98-0.58c0.3-0.21,0.54-0.42,0.72-0.62
		c-0.06-1.19-0.12-2.37-0.18-3.55c-0.06-1.17-0.11-2.36-0.16-3.55c-0.53,0.03-1.11,0.09-1.74,0.18c-0.63,0.09-1.26,0.22-1.89,0.39
		s-1.23,0.39-1.82,0.65s-1.09,0.58-1.53,0.95c-0.44,0.37-0.78,0.8-1.03,1.28S573.25,171.01,573.28,171.62z"/>
	<path fill="#222223" d="M591.38,167.59c-0.11-1.75,0.07-3.34,0.53-4.78s1.13-2.68,2.01-3.73c0.88-1.05,1.94-1.89,3.17-2.51
		s2.58-1.01,4.03-1.15c0.53-0.04,1.07-0.06,1.63-0.06s1.08,0.03,1.57,0.09c0.49,0.06,0.94,0.14,1.36,0.24
		c0.41,0.11,0.75,0.23,1.01,0.39l0.24,4.56l-1.81,0.09l-1.1-2.35c-0.21-0.15-0.45-0.28-0.72-0.38c-0.27-0.1-0.55-0.18-0.83-0.24
		c-0.28-0.06-0.56-0.1-0.84-0.12c-0.28-0.02-0.54-0.02-0.76-0.01c-0.85,0.04-1.65,0.25-2.41,0.6c-0.76,0.36-1.42,0.87-1.98,1.54
		c-0.56,0.67-0.99,1.5-1.3,2.49c-0.3,0.99-0.43,2.14-0.37,3.44c0.08,1.72,0.36,3.19,0.84,4.4c0.48,1.21,1.08,2.18,1.79,2.93
		c0.71,0.74,1.49,1.28,2.33,1.59c0.84,0.32,1.66,0.46,2.46,0.41c0.49-0.03,1.01-0.08,1.54-0.18c0.53-0.09,1.04-0.2,1.53-0.33
		c0.49-0.13,0.94-0.27,1.35-0.44c0.41-0.17,0.74-0.33,1-0.5l0.73,1.66c-0.35,0.35-0.79,0.66-1.32,0.95
		c-0.53,0.28-1.12,0.53-1.76,0.74c-0.64,0.21-1.32,0.38-2.03,0.52s-1.43,0.22-2.15,0.26c-1.47,0.08-2.79-0.12-3.94-0.59
		c-1.16-0.47-2.15-1.16-2.98-2.07c-0.83-0.91-1.48-2-1.96-3.28C591.75,170.51,591.47,169.11,591.38,167.59z"/>
	<path fill="#222223" d="M612.28,176.31l3.1-0.58L614.03,150l-3.46-0.51l-0.09-1.65l6.27-1.13l0.78,0.4l0.89,17.08l0.06,2.93
		l8.01-9.17l-2.89-0.12l-0.11-2.02l8.98-0.47l0.11,2.02l-2.88,0.46l-6.13,6.84l8.6,10.21l2.61,0.26l0.08,1.62l-9.22,0.48l-0.08-1.62
		l2.62-0.58l-6.71-8.44l-2.87,3.16l0.31,3.68l0.11,2.13l2.76,0.24l0.09,1.62l-9.51,0.5L612.28,176.31z"/>
	<path fill="#222223" d="M636.9,171.73c0.04-0.89,0.29-1.68,0.73-2.37c0.45-0.69,1.01-1.3,1.7-1.81s1.45-0.96,2.3-1.32
		c0.85-0.36,1.71-0.66,2.58-0.9c0.86-0.24,1.7-0.41,2.51-0.53c0.81-0.12,1.51-0.19,2.1-0.22l-0.09-1.65c-0.05-1-0.23-1.81-0.53-2.42
		s-0.69-1.09-1.18-1.42c-0.49-0.33-1.05-0.54-1.69-0.64c-0.64-0.09-1.33-0.12-2.06-0.08c-0.37,0.02-0.78,0.08-1.23,0.17
		c-0.45,0.09-0.92,0.22-1.4,0.37c-0.48,0.15-0.96,0.33-1.45,0.53c-0.49,0.2-0.95,0.42-1.38,0.66l-0.79-1.67
		c0.45-0.4,1.01-0.77,1.67-1.09c0.66-0.32,1.35-0.59,2.05-0.82c0.71-0.23,1.4-0.4,2.07-0.53c0.67-0.12,1.25-0.2,1.73-0.22
		c1-0.05,1.96,0,2.88,0.16s1.73,0.49,2.45,0.98c0.71,0.49,1.29,1.17,1.74,2.04c0.45,0.87,0.71,2,0.78,3.38l0.65,13.09l2.43-0.13
		l0.07,1.26c-0.43,0.26-0.97,0.49-1.61,0.68c-0.65,0.19-1.3,0.3-1.96,0.33c-0.23,0.01-0.48,0.01-0.74-0.01s-0.52-0.08-0.74-0.2
		c-0.23-0.12-0.42-0.3-0.58-0.56c-0.16-0.26-0.25-0.62-0.28-1.09l-0.03-0.53c-0.27,0.37-0.6,0.72-0.98,1.04
		c-0.38,0.33-0.83,0.62-1.33,0.87c-0.5,0.26-1.08,0.46-1.72,0.62c-0.65,0.16-1.37,0.26-2.17,0.3c-0.99,0.05-1.9-0.08-2.72-0.39
		c-0.82-0.31-1.52-0.76-2.09-1.33s-1.01-1.25-1.31-2.03C636.97,173.46,636.85,172.63,636.9,171.73z M640.6,171.62
		c0.04,0.75,0.17,1.38,0.4,1.89c0.23,0.51,0.55,0.92,0.95,1.22c0.4,0.3,0.89,0.51,1.45,0.63c0.57,0.12,1.2,0.16,1.89,0.12
		c0.38-0.02,0.76-0.09,1.15-0.21c0.39-0.12,0.76-0.27,1.11-0.44c0.35-0.17,0.68-0.36,0.98-0.58c0.3-0.21,0.54-0.42,0.72-0.62
		c-0.06-1.19-0.12-2.37-0.18-3.55c-0.06-1.17-0.11-2.36-0.16-3.55c-0.53,0.03-1.11,0.09-1.74,0.18c-0.63,0.09-1.26,0.22-1.89,0.39
		s-1.23,0.39-1.82,0.65s-1.09,0.58-1.53,0.95c-0.44,0.37-0.78,0.8-1.03,1.28S640.56,171.01,640.6,171.62z"/>
</g>
<g>
	<rect x="215.47" y="16.05" fill="none" width="844.02" height="169.41"/>
	<path fill="#222223" d="M229.26,18.4h3.89l4.94,27.58l3.05,0.63L241,48.28h-9.92l0.1-1.68l3.05-0.57l-0.98-6.27h-11.17l-2.93,6.25
		l3.11,0.59l-0.12,1.68h-9.2l0.18-1.68l2.3-0.57L229.26,18.4z M232.89,37.4l-2.07-13.46l-0.21-2.3l-7.42,15.76H232.89z"/>
	<path fill="#222223" d="M258.57,48.67c-1.56,0-2.34-0.8-2.34-2.4c0-0.08,0-0.16,0-0.23v-0.53c-1.15,1.42-2.54,2.38-4.18,2.89
		c-0.6,0.18-1.34,0.27-2.22,0.27s-1.72-0.21-2.53-0.63c-0.81-0.42-1.48-1.01-2.01-1.75c-1.05-1.48-1.58-3.5-1.58-6.05
		c0-2.1,0.5-4.26,1.5-6.48c1.67-3.72,4.14-6.22,7.42-7.5c1.15-0.46,2.25-0.68,3.32-0.68c1.07,0,2.1,0.12,3.11,0.35l1-6.58l-2.4-0.84
		l0.41-1.62l5.16-0.82l1.04,0.53l-4.06,28.05c-0.14,0.99-0.01,1.48,0.39,1.48c0.4,0,0.98-0.3,1.72-0.9l0.61,1.02
		c-0.59,0.87-1.51,1.58-2.77,2.13C259.63,48.57,259.11,48.67,258.57,48.67z M258.6,28.81c-0.66-0.57-1.54-0.86-2.62-0.86
		c-1.08,0-2,0.19-2.76,0.56s-1.44,0.87-2.04,1.5c-0.6,0.63-1.12,1.35-1.55,2.17c-0.44,0.81-0.8,1.66-1.08,2.55
		c-0.56,1.75-0.84,3.53-0.84,5.36c0,1.83,0.28,3.26,0.83,4.28c0.55,1.02,1.31,1.53,2.26,1.53c1.61,0,3.18-0.75,4.69-2.27
		c0.42-0.42,0.77-0.82,1.05-1.21L258.6,28.81z"/>
	<path fill="#222223" d="M270.51,41.35l-1.66-11.91c-0.22-1.16-0.9-1.37-2.03-0.64l-0.59-1.17c0.57-0.75,1.4-1.35,2.48-1.8
		c0.44-0.17,0.92-0.25,1.43-0.25c1.33,0,2.14,0.51,2.44,1.54c0.1,0.33,0.18,0.7,0.21,1.13l1.02,13.4l0.21,3.61l1.5-3.28l6.89-16.25
		h3.4l1.52,19.53l2.17-3.28c1.8-2.77,3.08-5.78,3.85-9.02c0.33-1.38,0.44-2.32,0.35-2.82c-0.09-0.5-0.17-0.88-0.23-1.12l-0.21-0.68
		c-0.07-0.22-0.1-0.57-0.1-1.04s0.17-0.87,0.52-1.21c0.34-0.34,0.87-0.51,1.57-0.51c1.45,0,2.17,1.37,2.17,4.1
		c0,1.95-0.98,4.75-2.93,8.38c-0.38,0.72-0.77,1.41-1.17,2.07l-5.18,8.32l-3.65,0.21l-0.74-7.3l-0.64-7.46l-0.14-2.75l-0.96,2.77
		l-3.83,8.09l-3.24,6.45l-3.28,0.23L270.51,41.35z"/>
	<path fill="#222223" d="M305.23,48.06c-2.97-1.26-4.45-4.17-4.45-8.71c0-3.48,1.01-6.6,3.03-9.38c1.34-1.84,2.99-3.12,4.94-3.85
		c0.98-0.38,2.05-0.57,3.21-0.57c1.17,0,2.22,0.2,3.17,0.61c0.95,0.4,1.76,0.99,2.42,1.76c1.37,1.6,2.05,3.87,2.05,6.82
		c0,3.61-1.01,6.78-3.03,9.51c-1.35,1.82-3.01,3.11-4.96,3.87c-0.98,0.36-2.05,0.55-3.21,0.55
		C307.23,48.67,306.18,48.47,305.23,48.06z M307.32,45.82c0.53,0.31,1.17,0.47,1.89,0.47c0.73,0,1.4-0.17,2-0.52
		c0.61-0.34,1.15-0.81,1.62-1.41c0.48-0.59,0.89-1.28,1.24-2.06c0.96-2.2,1.45-4.68,1.45-7.44c0-3.36-0.83-5.51-2.5-6.46
		c-0.53-0.3-1.17-0.45-1.89-0.45c-0.73,0-1.4,0.17-2,0.52c-0.61,0.35-1.15,0.81-1.62,1.41c-0.48,0.59-0.89,1.28-1.24,2.06
		c-0.96,2.2-1.45,4.68-1.45,7.44C304.82,42.73,305.65,44.88,307.32,45.82z"/>
	<path fill="#222223" d="M327.62,19.33l-2.29-0.84l0.31-1.62l5.2-0.82l1.02,0.53l-4.22,31.7h-3.79L327.62,19.33z M340.29,45.92
		c0.65,0,1.37-0.38,2.17-1.15l0.66,1.19c-0.68,1.12-1.81,1.94-3.4,2.46c-0.51,0.17-1.03,0.25-1.56,0.25c-1.28,0-2.3-0.7-3.07-2.11
		l-5.57-10.2l0.04-0.02h-0.04l1.88-1.41c2.1-1.51,3.67-2.96,4.71-4.36c0.47-0.65,0.75-1.24,0.86-1.78l0.2-1.13
		c0.12-0.66,0.46-1.19,1.02-1.58c0.48-0.35,1.02-0.53,1.62-0.53c0.9,0,1.52,0.38,1.88,1.13c0.95,2.01-1.34,4.77-6.88,8.3l-1.89,1.17
		l5.12,7.89c0.35,0.55,0.74,0.99,1.17,1.34C339.63,45.74,339.99,45.92,340.29,45.92z"/>
	<path fill="#222223" d="M357.28,45.62c-1.69,2.03-3.68,3.05-5.96,3.05c-2.11,0-3.73-0.79-4.86-2.38c-1.05-1.48-1.58-3.5-1.58-6.05
		c0-2.1,0.5-4.26,1.5-6.48c1.67-3.72,4.14-6.22,7.42-7.5c1.15-0.46,2.36-0.68,3.63-0.68c1.28,0,2.6,0.23,3.96,0.68l2.32-0.66
		l-2.56,19.04c-0.07,0.53-0.02,0.92,0.13,1.14c0.15,0.23,0.36,0.34,0.64,0.34c0.28,0,0.79-0.3,1.53-0.9l0.61,1.04
		c-0.22,0.4-0.62,0.81-1.19,1.21c-1.16,0.81-2.21,1.21-3.16,1.21c-1.65,0-2.48-0.79-2.48-2.36c0-0.09,0-0.18,0-0.27L357.28,45.62z
		 M359.5,28.59c-0.61-0.43-1.43-0.64-2.44-0.64s-1.9,0.18-2.67,0.55c-0.76,0.36-1.44,0.85-2.04,1.46c-0.6,0.61-1.12,1.32-1.55,2.12
		c-0.44,0.8-0.8,1.64-1.08,2.51c-0.56,1.71-0.84,3.23-0.84,4.58s0.07,2.4,0.21,3.16c0.14,0.76,0.35,1.4,0.63,1.92
		c0.56,1.09,1.33,1.64,2.32,1.64c1.67,0,3.22-0.74,4.65-2.23c0.4-0.42,0.74-0.82,1.02-1.21L359.5,28.59z"/>
	<path fill="#222223" d="M373.07,48.67c-2.38,0-3.57-1.17-3.57-3.5v-0.21c0-0.4,0.08-1.2,0.23-2.38l1.78-14.14h-2.34l0.39-1.7
		l2.4-0.92c0.74-0.89,1.61-2.62,2.6-5.2h1.86l-0.66,5.1h5.12l-0.39,2.71h-5.06l-1.62,12.23c-0.22,1.58-0.33,2.64-0.33,3.19
		c0,0.55,0.02,0.95,0.07,1.18c0.05,0.23,0.13,0.42,0.24,0.55c0.21,0.25,0.54,0.37,1.01,0.37c0.46,0,0.87-0.06,1.22-0.17
		c0.35-0.11,0.7-0.25,1.05-0.42c0.73-0.35,1.33-0.7,1.8-1.05l0.35,1.52c-0.89,1.08-2.35,1.93-4.39,2.56
		C374.19,48.58,373.61,48.67,373.07,48.67z"/>
</g>
</svg>
